<?xml version="1.0" encoding="utf-8"?>
<!-- Generator: Adobe Illustrator 23.0.1, SVG Export Plug-In . SVG Version: 6.00 Build 0)  -->
<svg version="1.1" xmlns="http://www.w3.org/2000/svg" xmlns:xlink="http://www.w3.org/1999/xlink" x="0px" y="0px"
	 viewBox="0 0 98.7 98" style="enable-background:new 0 0 98.7 98;" xml:space="preserve">
<style type="text/css">
	.st0{fill:#011B3A;}
	.st1{fill:#5E5E5E;}
	.st2{fill:#F4695B;}
	.st3{fill:#1D54DD;}
	.st4{fill:#FFFFFF;}
	.st5{opacity:0.8;fill:#E1EBFF;}
	.st6{fill:#D2D7D8;}
	.st7{fill:#828282;}
</style>
<g id="Layer_2">
</g>
<g id="Layer_1">
	<g>
		<g>
			<g>
				<path class="st2" d="M68.6,48.9c0,2.4-0.5,4.7-1.3,6.9l11.9,6.3c1.8-4,2.8-8.5,2.8-13.1c0-17.2-13.4-31.3-30.3-32.6v13.4
					C61.3,31,68.6,39.1,68.6,48.9z"/>
				<path class="st3" d="M44.4,16.7c-4.3,0.6-8.2,2.1-11.8,4.2c-1.4,0.8-2.8,1.8-4,2.8c-2.4,2-4.6,4.3-6.3,6.9
					c-1.2,1.7-2.2,3.6-3,5.6c-0.8,2-1.5,4-1.9,6.1c-0.4,2.1-0.7,4.3-0.7,6.6c0,1.1,0.1,2.2,0.2,3.3c0.3,2.5,0.8,4.9,1.5,7.1
					c0.3,0.8,0.5,1.5,0.9,2.2c1.7,3.9,4,7.4,7,10.4l9.5-9.5c-3.5-3.5-5.7-8.3-5.7-13.6c0-9.9,7.4-18,16.9-19.1V16.4
					C46.1,16.4,45.2,16.5,44.4,16.7z"/>
				<path class="st1" d="M77,66.3L65.1,60c-3.5,5-9.3,8.2-15.8,8.2c-0.5,0-0.9,0-1.4-0.1l-2.6,13.2l0,0c1.3,0.2,2.7,0.3,4,0.3
					c0.3,0,0.5,0,0.8,0c0.7,0,1.4,0,2-0.1c0.1,0,0.1,0,0.2,0c1-0.1,2-0.2,3-0.4c0,0,0.1,0,0.1,0c1-0.2,1.9-0.4,2.9-0.7
					c0.1,0,0.3-0.1,0.4-0.1c0.9-0.3,1.8-0.6,2.7-1c0.1-0.1,0.3-0.1,0.4-0.2c0.9-0.4,1.8-0.8,2.6-1.2c0.1-0.1,0.2-0.1,0.3-0.2
					c0.9-0.5,1.7-1,2.5-1.5c0,0,0.1-0.1,0.2-0.1c0.5-0.3,1-0.7,1.5-1.1c0.1-0.1,0.2-0.2,0.3-0.2c0.5-0.4,1-0.8,1.5-1.2
					c0.1-0.1,0.2-0.2,0.3-0.3c0.8-0.7,1.6-1.5,2.3-2.3c0.2-0.2,0.4-0.4,0.5-0.6C75,69.2,76.1,67.8,77,66.3L77,66.3z"/>
				<path class="st2" d="M35.7,62.6c0,0-9.5,9.5-9.5,9.5c1.8,1.7,7.6,6.5,14.4,8.4l2.6-13.2C40.4,66.3,37.8,64.7,35.7,62.6z"/>
			</g>
		</g>
	</g>
</g>
</svg>
