<?xml version="1.0" encoding="utf-8"?>
<!-- Generator: Adobe Illustrator 23.0.1, SVG Export Plug-In . SVG Version: 6.00 Build 0)  -->
<svg version="1.1" xmlns="http://www.w3.org/2000/svg" xmlns:xlink="http://www.w3.org/1999/xlink" x="0px" y="0px"
	 viewBox="0 0 98.7 98" style="enable-background:new 0 0 98.7 98;" xml:space="preserve">
<style type="text/css">
	.st0{fill:#011B3A;}
	.st1{fill:#5E5E5E;}
	.st2{fill:#F4695B;}
	.st3{fill:#1D54DD;}
	.st4{fill:#FFFFFF;}
	.st5{opacity:0.8;fill:#E1EBFF;}
	.st6{fill:#D2D7D8;}
	.st7{fill:#828282;}
</style>
<g id="Layer_2">
</g>
<g id="Layer_1">
	<g>
		<g>
			<g>
				<g>
					<polygon class="st1" points="62.8,35.2 59.1,35.2 59.1,20 16.3,20 16.3,35.2 12.6,35.2 12.6,16.2 62.8,16.2 					"/>
				</g>
				<g>
					<polygon class="st1" points="35.8,81.8 35.8,62.8 39.6,62.8 39.6,78 82.4,78 82.4,62.8 86.1,62.8 86.1,81.8 					"/>
				</g>
				<g>
					<g>
						<polygon class="st2" points="5.3,42.5 23.5,42.5 14.4,26.6 						"/>
					</g>
				</g>
				<g>
					<g>
						<polygon class="st3" points="28.6,42.5 46.8,42.5 37.7,26.6 						"/>
					</g>
				</g>
				<g>
					<g>
						<polygon class="st2" points="51.9,42.5 70.1,42.5 61,26.6 						"/>
					</g>
				</g>
				<g>
					<g>
						<polygon class="st3" points="75.2,42.5 93.4,42.5 84.3,26.6 						"/>
					</g>
				</g>
				<g>
					<g>
						<polygon class="st3" points="5.3,67.2 23.5,67.2 14.4,51.4 						"/>
					</g>
				</g>
				<g>
					<g>
						<polygon class="st2" points="28.6,67.2 46.8,67.2 37.7,51.4 						"/>
					</g>
				</g>
				<g>
					<g>
						<polygon class="st3" points="51.9,67.2 70.1,67.2 61,51.4 						"/>
					</g>
				</g>
				<g>
					<g>
						<polygon class="st2" points="75.2,67.2 93.4,67.2 84.3,51.4 						"/>
					</g>
				</g>
			</g>
		</g>
	</g>
</g>
</svg>
