<?xml version="1.0" encoding="utf-8"?>
<!-- Generator: Adobe Illustrator 23.0.1, SVG Export Plug-In . SVG Version: 6.00 Build 0)  -->
<svg version="1.1" xmlns="http://www.w3.org/2000/svg" xmlns:xlink="http://www.w3.org/1999/xlink" x="0px" y="0px"
	 viewBox="0 0 98.7 98" style="enable-background:new 0 0 98.7 98;" xml:space="preserve">
<style type="text/css">
	.st0{fill:#011B3A;}
	.st1{fill:#5E5E5E;}
	.st2{fill:#F4695B;}
	.st3{fill:#1D54DD;}
	.st4{fill:#FFFFFF;}
	.st5{opacity:0.8;fill:#E1EBFF;}
	.st6{fill:#D2D7D8;}
	.st7{fill:#828282;}
</style>
<g id="Layer_2">
</g>
<g id="Layer_1">
	<g>
		<g>
			<g>
				<polygon class="st1" points="69.8,75.5 58.2,58.6 69.4,50.5 67.2,47.5 56.1,55.6 45.6,40.3 69.4,22.9 67.2,19.9 43.5,37.2 
					31.9,20.4 28.8,22.5 40.4,39.4 29.3,47.5 31.5,50.5 42.6,42.4 53.1,57.7 29.3,75.1 31.5,78.1 55.2,60.8 66.8,77.6 				"/>
				<g>
					<rect x="21.9" y="13" class="st2" width="16.9" height="16.9"/>
				</g>
				<g>
					<rect x="59.9" y="13" class="st2" width="16.9" height="16.9"/>
				</g>
				<g>
					<rect x="21.9" y="40.6" class="st2" width="16.9" height="16.9"/>
				</g>
				<g>
					<rect x="59.9" y="40.6" class="st3" width="16.9" height="16.9"/>
				</g>
				<g>
					<rect x="21.9" y="68.1" class="st3" width="16.9" height="16.9"/>
				</g>
				<g>
					<rect x="59.9" y="68.1" class="st2" width="16.9" height="16.9"/>
				</g>
			</g>
		</g>
	</g>
</g>
</svg>
