<?xml version="1.0" encoding="utf-8"?>
<!-- Generator: Adobe Illustrator 23.0.1, SVG Export Plug-In . SVG Version: 6.00 Build 0)  -->
<svg version="1.1" xmlns="http://www.w3.org/2000/svg" xmlns:xlink="http://www.w3.org/1999/xlink" x="0px" y="0px"
	 viewBox="0 0 98.7 98" style="enable-background:new 0 0 98.7 98;" xml:space="preserve">
<style type="text/css">
	.st0{fill:#011B3A;}
	.st1{fill:#5E5E5E;}
	.st2{fill:#F4695B;}
	.st3{fill:#1D54DD;}
	.st4{fill:#FFFFFF;}
	.st5{opacity:0.8;fill:#E1EBFF;}
	.st6{fill:#D2D7D8;}
	.st7{fill:#828282;}
</style>
<g id="Layer_2">
</g>
<g id="Layer_1">
	<g>
		<g>
			<g>
				<path class="st1" d="M50.6,29H16.3v1.9L15,32.1l15.8,17L15.3,65.9l1.4,1.3V69h33.9l35.5-20L50.6,29z M52,34l26.6,15L52,64V34z
					 M48.3,62.4L35.9,49.1l12.4-13.5V62.4z M20.6,32.7h25.3L33.3,46.3L20.6,32.7z M45.8,65.3H20.9l12.4-13.5L45.8,65.3z"/>
				<g>
					<g>
						<circle class="st2" cx="16.3" cy="30.8" r="11.3"/>
					</g>
				</g>
				<g>
					<g>
						<circle class="st2" cx="16.7" cy="67.2" r="11.3"/>
					</g>
				</g>
				<g>
					<g>
						<circle class="st3" cx="50.1" cy="30.8" r="11.3"/>
					</g>
				</g>
				<g>
					<g>
						<circle class="st3" cx="50.1" cy="67.2" r="11.3"/>
					</g>
				</g>
				<g>
					<g>
						<circle class="st2" cx="82.4" cy="49" r="11.3"/>
					</g>
				</g>
			</g>
		</g>
	</g>
</g>
</svg>
