<?xml version="1.0" encoding="utf-8"?>
<!-- Generator: Adobe Illustrator 23.0.1, SVG Export Plug-In . SVG Version: 6.00 Build 0)  -->
<svg version="1.1" xmlns="http://www.w3.org/2000/svg" xmlns:xlink="http://www.w3.org/1999/xlink" x="0px" y="0px"
	 viewBox="0 0 98.7 98" style="enable-background:new 0 0 98.7 98;" xml:space="preserve">
<style type="text/css">
	.st0{fill:#011B3A;}
	.st1{fill:#5E5E5E;}
	.st2{fill:#F4695B;}
	.st3{fill:#1D54DD;}
	.st4{fill:#FFFFFF;}
	.st5{opacity:0.8;fill:#E1EBFF;}
	.st6{fill:#D2D7D8;}
	.st7{fill:#828282;}
</style>
<g id="Layer_2">
</g>
<g id="Layer_1">
	<g>
		<g>
			<g>
				<g>
					<path class="st2" d="M39,34.1c4.5,0,8.1-3.6,8.1-8.1c0-4.5-3.6-8.1-8.1-8.1s-8.1,3.6-8.1,8.1C30.9,30.5,34.5,34.1,39,34.1z"/>
				</g>
				<g>
					<path class="st3" d="M20.4,37c-4.5,0-8.1,3.6-8.1,8.1s3.6,8.1,8.1,8.1c4.5,0,8.1-3.6,8.1-8.1S24.9,37,20.4,37z"/>
				</g>
				<g>
					<path class="st3" d="M17.8,60.2c-4.5,0-8.1,3.6-8.1,8.1c0,4.5,3.6,8.1,8.1,8.1c4.5,0,8.1-3.6,8.1-8.1
						C25.9,63.8,22.3,60.2,17.8,60.2z"/>
				</g>
				<g>
					<path class="st2" d="M66.1,54.9c-4.5,0-8.1,3.6-8.1,8.1c0,4.5,3.6,8.1,8.1,8.1c4.5,0,8.1-3.6,8.1-8.1
						C74.2,58.5,70.6,54.9,66.1,54.9z"/>
				</g>
				<g>
					<path class="st2" d="M41.1,49.3c-4.5,0-8.1,3.6-8.1,8.1c0,4.5,3.6,8.1,8.1,8.1c4.5,0,8.1-3.6,8.1-8.1
						C49.2,53,45.5,49.3,41.1,49.3z"/>
				</g>
				<g>
					<path class="st2" d="M65.2,25.3c4.5,0,8.1-3.6,8.1-8.1s-3.6-8.1-8.1-8.1c-4.5,0-8.1,3.6-8.1,8.1S60.8,25.3,65.2,25.3z"/>
				</g>
				<g>
					<path class="st2" d="M80.9,29.6c-4.5,0-8.1,3.6-8.1,8.1c0,4.5,3.6,8.1,8.1,8.1c4.5,0,8.1-3.6,8.1-8.1
						C89,33.3,85.3,29.6,80.9,29.6z"/>
				</g>
				<g>
					<path class="st2" d="M65.6,40.1c0-4.5-3.6-8.1-8.1-8.1c-4.5,0-8.1,3.6-8.1,8.1c0,4.5,3.6,8.1,8.1,8.1
						C62,48.2,65.6,44.6,65.6,40.1z"/>
				</g>
				<g>
					<path class="st3" d="M39,72.7c-4.5,0-8.1,3.6-8.1,8.1c0,4.5,3.6,8.1,8.1,8.1s8.1-3.6,8.1-8.1C47.1,76.3,43.4,72.7,39,72.7z"/>
				</g>
			</g>
		</g>
	</g>
</g>
</svg>
