<?xml version="1.0" encoding="utf-8"?>
<!-- Generator: Adobe Illustrator 26.0.1, SVG Export Plug-In . SVG Version: 6.00 Build 0)  -->
<svg version="1.1" id="Layer_1" xmlns="http://www.w3.org/2000/svg" xmlns:xlink="http://www.w3.org/1999/xlink" x="0px" y="0px"
	 viewBox="0 0 197.2 224.8" style="enable-background:new 0 0 197.2 224.8;" xml:space="preserve">
<style type="text/css">
	.doc-st19{fill:#FFFFFF;}
</style>
<g>
	<g>
		<rect x="46.3" y="126.1" class="doc-st19" width="96" height="6.1"/>
	</g>
	<g>
		<rect x="46.3" y="142.4" class="doc-st19" width="96" height="6.1"/>
	</g>
	<g>
		<rect x="46.3" y="158.7" class="doc-st19" width="96" height="6.1"/>
	</g>
	<g>
		<rect x="46.3" y="174.9" class="doc-st19" width="64.8" height="6.1"/>
	</g>
	<g>
		<path class="doc-st19" d="M50.1,28.1l-27,27v148.5h142.5V28.1H50.1z M29.1,197.6v-138h25.1V34.1l105.3,0v163.5H29.1z M48.2,53.5h-15
			l15-15V53.5z"/>
	</g>
	<g>
		<rect x="46.3" y="110.5" class="doc-st19" width="80" height="6.1"/>
	</g>
	<rect x="89.1" y="50.9" class="doc-st19" width="11.5" height="42.9"/>
	
		<rect x="88.6" y="50.9" transform="matrix(-1.836970e-16 1 -1 -1.836970e-16 166.6818 -21.915)" class="doc-st19" width="11.5" height="42.9"/>
</g>
</svg>
