<svg id="b94de091-65c8-48ec-8890-45eb199f7ac4" data-name="Layer 1" xmlns="http://www.w3.org/2000/svg" viewBox="0 0 800 560"><path d="M420.23,53.25C418,62.84,412,72.81,403.72,77.41c-1.26,145.42,11.89,289-.7,432.44,6,4,10.33,10.47,13.15,18.54l199.11-123V173.76Zm1.19,122.13V90.26l73.71,42.56,73.72,42.56L495.13,218l-73.71,42.56Zm73.71,270.94-73.71,42.55V318.63l73.71,42.56,73.72,42.56Zm87.36-156.75v85.12l-73.72-42.56-73.72-42.56L508.77,247l73.72-42.56Z" fill="#022249"/><path d="M407.2,45.2l-8.06,5h0l-200,123.58V405.37L397.79,528.12h0l9.41,5.81,14.22-8.78V54ZM231.91,289.57V204.44L305.62,247l73.72,42.57-73.72,42.56-73.71,42.56ZM393,403.75v85.13l-73.72-42.57-73.72-42.56,73.72-42.56L393,318.62Zm0-228.37v85.13L319.26,218l-73.72-42.57,73.72-42.56L393,90.26Z" fill="#022249"/></svg>