<svg id="b34846fd-58fa-4239-a389-7e852212a74a" data-name="Layer 1" xmlns="http://www.w3.org/2000/svg" viewBox="0 0 1720.66 194.45"><path d="M243.13,91.33a78.66,78.66,0,0,1,1.89-18,38.05,38.05,0,0,1,5.76-13.47,26.3,26.3,0,0,1,9.72-8.42,33.73,33.73,0,0,1,28.07.24,26.18,26.18,0,0,1,9.59,8.82A39.9,39.9,0,0,1,303.58,74a82.44,82.44,0,0,1,1.7,17.3q0,20.13-7.71,31.49t-23.36,11.36A30.21,30.21,0,0,1,259.79,131a26.07,26.07,0,0,1-9.65-8.83,38.73,38.73,0,0,1-5.36-13.53A84.66,84.66,0,0,1,243.13,91.33Zm16.95,0a111.3,111.3,0,0,0,.53,11.19,35.42,35.42,0,0,0,2,9,14.12,14.12,0,0,0,4.24,6.06,11.3,11.3,0,0,0,7.36,2.24,12.6,12.6,0,0,0,6.83-1.71,11.92,11.92,0,0,0,4.35-5.23,29.81,29.81,0,0,0,2.3-8.89,107.66,107.66,0,0,0,.64-12.66c0-3.84-.13-7.49-.41-10.94A32.94,32.94,0,0,0,286,71.32a14.21,14.21,0,0,0-4.3-6.18,11.57,11.57,0,0,0-7.53-2.29Q266,62.85,263,70T260.08,91.33Z" fill="#fff"/><path d="M309.52,73.68h20l1.77,7.06h.47Q337.89,72,351.54,72a28,28,0,0,1,9.95,1.71,19.43,19.43,0,0,1,7.77,5.35,25.13,25.13,0,0,1,5,9.18A44,44,0,0,1,376,101.58a43.32,43.32,0,0,1-2,13.59,29,29,0,0,1-5.77,10.3,24.66,24.66,0,0,1-9.18,6.48,32.16,32.16,0,0,1-12.36,2.23,47.41,47.41,0,0,1-7.18-.53,19.81,19.81,0,0,1-5.89-1.7v24.13h-15.3V86.63h-8.83ZM347,85a15.54,15.54,0,0,0-8.18,2.23,11.62,11.62,0,0,0-5.12,6.71v24.49a12.66,12.66,0,0,0,4.77,2.06,26.36,26.36,0,0,0,6.3.76,16.64,16.64,0,0,0,6.12-1.11,12.59,12.59,0,0,0,4.94-3.6,17.48,17.48,0,0,0,3.3-6.23,30.81,30.81,0,0,0,1.18-9.07q0-7.77-3.77-12A12.19,12.19,0,0,0,347,85Z" fill="#fff"/><path d="M380.15,73.68h20l1.76,7.06h.47Q408.51,72,422.17,72a28,28,0,0,1,9.95,1.71,19.43,19.43,0,0,1,7.77,5.35,25.43,25.43,0,0,1,5,9.18,44,44,0,0,1,1.76,13.31,43,43,0,0,1-2,13.59,28.84,28.84,0,0,1-5.76,10.3A24.78,24.78,0,0,1,429.7,132a32.16,32.16,0,0,1-12.36,2.23,47.51,47.51,0,0,1-7.18-.53,19.83,19.83,0,0,1-5.88-1.7v24.13H389V86.63h-8.83ZM417.58,85a15.54,15.54,0,0,0-8.18,2.23,11.62,11.62,0,0,0-5.12,6.71v24.49a12.66,12.66,0,0,0,4.77,2.06,26.21,26.21,0,0,0,6.29.76,16.56,16.56,0,0,0,6.12-1.11,12.55,12.55,0,0,0,5-3.6,17.31,17.31,0,0,0,3.29-6.23,30.48,30.48,0,0,0,1.18-9.07q0-7.77-3.77-12A12.19,12.19,0,0,0,417.58,85Z" fill="#fff"/><path d="M454.89,103.11a36.32,36.32,0,0,1,2.24-13.19,26.51,26.51,0,0,1,16.19-15.83A37.47,37.47,0,0,1,486.09,72a36.75,36.75,0,0,1,13.24,2.24,27.46,27.46,0,0,1,9.83,6.29,26.46,26.46,0,0,1,6.06,9.83,37.71,37.71,0,0,1,2.06,12.72A36.27,36.27,0,0,1,515,116.29a26.46,26.46,0,0,1-16.18,15.83,37.51,37.51,0,0,1-12.77,2.06A36.81,36.81,0,0,1,472.84,132a27.35,27.35,0,0,1-9.82-6.3,26.61,26.61,0,0,1-6.07-9.83A37.65,37.65,0,0,1,454.89,103.11Zm15.78,0a23.25,23.25,0,0,0,1.06,7.18,17.37,17.37,0,0,0,3.06,5.76,13.77,13.77,0,0,0,4.82,3.83,16.33,16.33,0,0,0,17.6-3q4.29-4.35,4.3-13.77,0-8.13-4-13.13t-11.42-5A18.1,18.1,0,0,0,480,86a12,12,0,0,0-4.89,3.24,15.91,15.91,0,0,0-3.24,5.65A25.52,25.52,0,0,0,470.67,103.11Z" fill="#fff"/><path d="M526,119.59h14.6v-33H526V73.68h26.49l1.76,7.77h.47A31.2,31.2,0,0,1,562.25,75a18.62,18.62,0,0,1,9.88-2.59,13.39,13.39,0,0,1,11.13,5.18q4.05,5.19,4.06,17.31H573.55c0-2.83-.42-4.89-1.24-6.18a4.32,4.32,0,0,0-3.94-2,11.66,11.66,0,0,0-7.6,2.36,23.64,23.64,0,0,0-4.88,5.41v25.08h25.54v12.94H526Z" fill="#fff"/><path d="M605.68,86.63H594V73.68h11.65V60.26L621,55.9V73.68h30.84V86.63H621v16.83q0,9.06,3.42,13.12t9.53,4.06a20.36,20.36,0,0,0,5.77-.76,22.31,22.31,0,0,0,4.65-1.94,27.51,27.51,0,0,0,3.77-2.59l3.11-2.59,7.07,10.59a22.92,22.92,0,0,1-5,4.3,43.24,43.24,0,0,1-6.48,3.41,41,41,0,0,1-7.24,2.3,34.54,34.54,0,0,1-7.41.82q-13.18,0-19.84-7.36t-6.65-23.36Z" fill="#fff"/><path d="M701.5,73.68h21.89v45.91h9v12.94h-18.6L711,123.82h-.47a20.76,20.76,0,0,1-8.12,7.42,24.75,24.75,0,0,1-12,2.94,26.77,26.77,0,0,1-8.18-1.18,14.66,14.66,0,0,1-6.3-3.88,18.08,18.08,0,0,1-4-7.3,39.89,39.89,0,0,1-1.41-11.53V86.63h-6.71V73.68h22v33.43q0,7.19,2.3,10.36c1.53,2.12,3.94,3.17,7.24,3.17a12.77,12.77,0,0,0,7.82-2.58,14,14,0,0,0,4.89-6.36V86.63H701.5Z" fill="#fff"/><path d="M734.69,73.68h20.6l1.77,7.77h.47a23.37,23.37,0,0,1,7.77-6.6A24.51,24.51,0,0,1,777.42,72a27.51,27.51,0,0,1,8.18,1.18,15.5,15.5,0,0,1,6.53,3.88,18.82,18.82,0,0,1,4.3,7.36A35.79,35.79,0,0,1,798,95.93v36.6h-15.3V99.1q0-7.17-3.24-10.36a11.22,11.22,0,0,0-8.18-3.17,13.5,13.5,0,0,0-7.95,2.53,12.66,12.66,0,0,0-4.88,6.29v38.14h-15.3V86.63h-8.48Z" fill="#fff"/><path d="M810.85,119.59h20.72v-33H810.85V73.68h36v45.91h21.78v12.94h-57.8Zm17.89-61.92a8.32,8.32,0,0,1,2.71-6.24q2.7-2.59,7.53-2.59a11.49,11.49,0,0,1,7.89,2.59,8,8,0,0,1,2.94,6.24,7.64,7.64,0,0,1-2.94,6.18A12,12,0,0,1,839,66.26q-4.83,0-7.53-2.41A7.9,7.9,0,0,1,828.74,57.67Z" fill="#fff"/><path d="M888.19,86.63H876.53V73.68h11.66V60.26l15.3-4.36V73.68h30.84V86.63H903.49v16.83q0,9.06,3.41,13.12c2.28,2.71,5.45,4.06,9.54,4.06a20.28,20.28,0,0,0,5.76-.76,21.87,21.87,0,0,0,4.65-1.94,26.91,26.91,0,0,0,3.77-2.59l3.12-2.59,7.06,10.59a22.68,22.68,0,0,1-5,4.3,42.65,42.65,0,0,1-6.47,3.41,41.25,41.25,0,0,1-7.24,2.3,34.7,34.7,0,0,1-7.42.82q-13.18,0-19.83-7.36t-6.65-23.36Z" fill="#fff"/><path d="M980.59,115.94h4.47l11.42-42.26h15.77l-16.71,53.09q-2.24,6.58-4.36,12.06a43.87,43.87,0,0,1-4.94,9.48,20.92,20.92,0,0,1-6.65,6.18,18.67,18.67,0,0,1-9.36,2.17,18.15,18.15,0,0,1-5.12-.7,26.4,26.4,0,0,1-4.42-1.71,24.77,24.77,0,0,1-3.53-2.12,20.73,20.73,0,0,1-2.47-2.06l7.89-10.47a20.44,20.44,0,0,0,3.65,2.41,8.65,8.65,0,0,0,4,1.12,6.92,6.92,0,0,0,5.59-2.47,25.93,25.93,0,0,0,3.94-8.13h-8.35L946.92,73.68h16.6Z" fill="#fff"/><path d="M1075.11,50.14h52.26V64.5h-36.13V84.86h33.54V99.22h-33.54v33.31h-16.13Z" fill="#fff"/><path d="M1140.44,119.59H1155v-33h-14.59V73.68h26.48l1.77,7.77h.47a31.34,31.34,0,0,1,7.53-6.48,18.65,18.65,0,0,1,9.89-2.59,13.36,13.36,0,0,1,11.12,5.18q4.07,5.19,4.07,17.31H1188q0-4.25-1.23-6.18a4.33,4.33,0,0,0-4-2,11.62,11.62,0,0,0-7.59,2.36,23.64,23.64,0,0,0-4.88,5.41v25.08h25.54v12.94h-55.44Z" fill="#fff"/><path d="M1217.07,77.68A64.5,64.5,0,0,1,1228,74a61.54,61.54,0,0,1,14.65-1.53A32.43,32.43,0,0,1,1253,74a17.43,17.43,0,0,1,6.94,4.18,15.9,15.9,0,0,1,3.83,6.48A28.47,28.47,0,0,1,1265,93.1c0,4-.14,7.42-.42,10.24s-.41,5.34-.41,7.53c0,1.65.08,3.5.24,5.54.15,1.1.27,2.16.35,3.18h7.65v12.94h-19.76l-1.54-8h-.59a20.37,20.37,0,0,1-6.67,6.3q-4.32,2.64-11.7,2.65-8.78,0-13.92-4.71t-5.14-12.48a18.67,18.67,0,0,1,1.81-8.53,15.19,15.19,0,0,1,5.26-5.89,24.91,24.91,0,0,1,8.3-3.41,48.09,48.09,0,0,1,10.82-1.12c1.41,0,2.89.08,4.45.23s3.47.32,5.73.47a12.4,12.4,0,0,0,.23-2.35V93.45c0-3-.85-5.12-2.57-6.41s-4.24-1.94-7.59-1.94a35.31,35.31,0,0,0-10.76,1.53,68.71,68.71,0,0,0-8.06,3.06Zm20,43.2c3.72,0,6.52-.69,8.38-2.06a13.94,13.94,0,0,0,4.08-4.41v-7.07c-.78-.15-1.94-.33-3.5-.53a41.18,41.18,0,0,0-5-.29,24.59,24.59,0,0,0-4.43.41,14.78,14.78,0,0,0-4,1.3,7.67,7.67,0,0,0-2.8,2.29,5.62,5.62,0,0,0-1,3.42,6.74,6.74,0,0,0,1.92,5.12Q1232.68,120.88,1237.1,120.88Z" fill="#fff"/><path d="M1305.47,132.53v-36a28.18,28.18,0,0,0-.47-5.7,11.06,11.06,0,0,0-1.24-3.42,3.83,3.83,0,0,0-1.88-1.65,6.72,6.72,0,0,0-2.3-.41,6,6,0,0,0-3.71,1.3,6.28,6.28,0,0,0-2.29,3.29v42.61h-14.13V73.68h11.19l1.64,6.47h.36a14.37,14.37,0,0,1,5.18-5.59,14.55,14.55,0,0,1,8-2.18,15.53,15.53,0,0,1,7.42,1.89,10,10,0,0,1,4.82,6.59,13.1,13.1,0,0,1,5.42-6.3,15.12,15.12,0,0,1,7.88-2.18,17.2,17.2,0,0,1,5.71.89,10,10,0,0,1,4.42,3.12,15.42,15.42,0,0,1,2.88,6.06,39.68,39.68,0,0,1,1,9.83v40.25h-14.12V94.87q0-5.31-1.71-7.42a5.2,5.2,0,0,0-4.18-2.12,6.58,6.58,0,0,0-3.65,1,5.32,5.32,0,0,0-2.12,3.24v43Z" fill="#fff"/><path d="M1410.58,126.3a20.74,20.74,0,0,1-3.94,2.76,38.16,38.16,0,0,1-5.65,2.53,44.15,44.15,0,0,1-7.12,1.89,46.16,46.16,0,0,1-8.24.7,39.81,39.81,0,0,1-13.48-2.12,26.42,26.42,0,0,1-16.36-16,36.3,36.3,0,0,1-2.18-13,34.57,34.57,0,0,1,2.47-13.6,27.3,27.3,0,0,1,6.77-9.71A28.37,28.37,0,0,1,1372.92,74,38.94,38.94,0,0,1,1385.39,72a38.2,38.2,0,0,1,9.24,1.18,25.16,25.16,0,0,1,8.77,4.06,21.74,21.74,0,0,1,6.54,7.71,26.33,26.33,0,0,1,2.53,12.24,56.53,56.53,0,0,1-1.18,11h-42.38a13.56,13.56,0,0,0,1.59,6.35,12.57,12.57,0,0,0,3.89,4.24,16.68,16.68,0,0,0,5.53,2.41,27.37,27.37,0,0,0,6.65.77,34.45,34.45,0,0,0,11.6-1.65,24.43,24.43,0,0,0,7.35-4Zm-25.42-42a19.35,19.35,0,0,0-5.77.84,16.18,16.18,0,0,0-4.89,2.46,13.6,13.6,0,0,0-3.59,4,12.33,12.33,0,0,0-1.64,5.39h29q0-5.87-3.23-9.29T1385.16,84.27Z" fill="#fff"/><path d="M1459.67,87.8l8.83,25.78h.59l1.05-10.12L1475,73.68h13.77l-11.89,58.85h-15.42l-6.59-23.3h-.59l-7.41,23.3H1431l-12.36-58.85h15.3l5.77,32.6.94,7.3h.59l8.71-25.78Z" fill="#fff"/><path d="M1493.1,103.11a36.33,36.33,0,0,1,2.23-13.19,26.51,26.51,0,0,1,16.19-15.83A37.51,37.51,0,0,1,1524.29,72a36.72,36.72,0,0,1,13.24,2.24,27.37,27.37,0,0,1,9.83,6.29,26.61,26.61,0,0,1,6.07,9.83,37.71,37.71,0,0,1,2.06,12.72,36.27,36.27,0,0,1-2.24,13.18,26.51,26.51,0,0,1-16.19,15.83,37.47,37.47,0,0,1-12.77,2.06,36.76,36.76,0,0,1-13.24-2.23,27.39,27.39,0,0,1-9.83-6.3,26.46,26.46,0,0,1-6.06-9.83A37.4,37.4,0,0,1,1493.1,103.11Zm15.77,0a23.25,23.25,0,0,0,1.06,7.18,17.75,17.75,0,0,0,3.06,5.76,13.71,13.71,0,0,0,4.83,3.83,14.82,14.82,0,0,0,6.47,1.35,15,15,0,0,0,11.13-4.35q4.29-4.35,4.29-13.77,0-8.13-4-13.13t-11.42-5a18.1,18.1,0,0,0-6.12,1,12,12,0,0,0-4.88,3.24,15.62,15.62,0,0,0-3.24,5.65A25.23,25.23,0,0,0,1508.87,103.11Z" fill="#fff"/><path d="M1564.19,119.59h14.6v-33h-14.6V73.68h26.49l1.77,7.77h.47a31,31,0,0,1,7.53-6.48,18.63,18.63,0,0,1,9.89-2.59,13.37,13.37,0,0,1,11.12,5.18q4.07,5.19,4.06,17.31h-13.77q0-4.25-1.24-6.18a4.31,4.31,0,0,0-3.94-2A11.62,11.62,0,0,0,1599,89.1a23.69,23.69,0,0,0-4.89,5.41v25.08h25.55v12.94h-55.45Z" fill="#fff"/><path d="M1630.23,50.14h25v47h3.54L1678,73.68h18l-23.78,26.84,15.42,19.07h10.95v12.94h-19.07l-20.25-24.36h-4.12v24.36h-15.3V63.08h-9.65Z" fill="#fff"/><path d="M124.33,31.42h0l-3.52-2.17-2.17,1.35-54,33.33v62.48l53.6,33.11,2.53,1.57,2.42-1.5h0l53.71-33.18V63.93ZM73.53,95.17v-23L93.41,83.69,113.3,95.17,93.41,106.65,73.53,118.13ZM117,126v23L97.09,137.45,77.21,126l19.88-11.48L117,103Zm0-61.6v23L97.09,75.85,77.21,64.37,97.09,52.89,117,41.41Zm7.67,0v-23l19.88,11.48,19.89,11.48L144.53,75.85,124.65,87.33Zm19.88,73.08-19.88,11.48V103l19.88,11.48L164.42,126ZM168.1,95.17v23l-19.89-11.48L128.33,95.17l19.88-11.48L168.1,72.21Z" fill="#fff"/></svg>