<svg id="bbed36d6-91a0-4282-bdbf-b62611e043d5" data-name="Layer 1" xmlns="http://www.w3.org/2000/svg" viewBox="0 0 1603.26 523.48" style=""><path d="M222.09,87.08l-6.89-4.26-6.57,4.06h0L62.86,177V346.52l142.81,88.24h0l9.53,5.89,5.91-3.65h0l146.44-90.48V177ZM86.86,261.74V199.41l54,31.17,54,31.16-54,31.16-54,31.16ZM204.8,283V407.66l-54-31.16-54-31.16,54-31.16,54-31.17Zm0-167.2V240.46l-54-31.16-54-31.16,54-31.17,54-31.16Zm20.82,0,54,31.16,54,31.16-54,31.17-54,31.16Zm54,260.69-54,31.16V283l54,31.16,54,31.16Zm64-114.76v62.32l-54-31.16-54-31.16,54-31.16,54-31.17Z" fill="#fff"/><path d="M496,164.75a106.79,106.79,0,0,1,2.56-24.45,51.75,51.75,0,0,1,7.83-18.3,35.67,35.67,0,0,1,13.19-11.43,40.85,40.85,0,0,1,18.62-4q11.5,0,19.5,4.32a35.6,35.6,0,0,1,13,12,53.8,53.8,0,0,1,7.35,18.38,111.48,111.48,0,0,1,2.32,23.49q0,27.34-10.47,42.76T538.2,222.94q-11.51,0-19.58-4.32a35.36,35.36,0,0,1-13.11-12,53,53,0,0,1-7.27-18.38A115.13,115.13,0,0,1,496,164.75Zm23,0a149.59,149.59,0,0,0,.72,15.19,47.32,47.32,0,0,0,2.72,12.23,19.14,19.14,0,0,0,5.75,8.23q3.75,3,10,3a17,17,0,0,0,9.27-2.32,16.27,16.27,0,0,0,5.92-7.11,40,40,0,0,0,3.11-12.07,144.7,144.7,0,0,0,.88-17.19q0-7.81-.56-14.86a44.44,44.44,0,0,0-2.56-12.31,19.37,19.37,0,0,0-5.83-8.39q-3.84-3.12-10.23-3.12-11.19,0-15.18,9.75T519,164.75Z" fill="#fff"/><path d="M586.15,140.78h27.18l2.39,9.59h.64q8.31-11.84,26.86-11.83a38.11,38.11,0,0,1,13.5,2.32,26.39,26.39,0,0,1,10.55,7.27,34.24,34.24,0,0,1,6.8,12.47,60.1,60.1,0,0,1,2.39,18.06,58.71,58.71,0,0,1-2.71,18.46,39.45,39.45,0,0,1-7.84,14,33.47,33.47,0,0,1-12.46,8.79,43.79,43.79,0,0,1-16.79,3,65.64,65.64,0,0,1-9.75-.72,26.77,26.77,0,0,1-8-2.32v32.77H598.14V158.36h-12ZM637,156.12a21.16,21.16,0,0,0-11.11,3,15.77,15.77,0,0,0-7,9.11v33.25a17.24,17.24,0,0,0,6.47,2.8,36,36,0,0,0,8.56,1,22.44,22.44,0,0,0,8.31-1.52A17.06,17.06,0,0,0,649,199a23.76,23.76,0,0,0,4.48-8.47A41.77,41.77,0,0,0,655,178.18q0-10.55-5.11-16.3A16.57,16.57,0,0,0,637,156.12Z" fill="#fff"/><path d="M682.06,140.78h27.17l2.4,9.59h.64q8.31-11.84,26.85-11.83a38.21,38.21,0,0,1,13.51,2.32,26.46,26.46,0,0,1,10.55,7.27A34.23,34.23,0,0,1,770,160.6a59.76,59.76,0,0,1,2.4,18.06,58.7,58.7,0,0,1-2.72,18.46,39.28,39.28,0,0,1-7.83,14,33.51,33.51,0,0,1-12.47,8.79,43.74,43.74,0,0,1-16.78,3,65.44,65.44,0,0,1-9.75-.72,26.75,26.75,0,0,1-8-2.32v32.77H694V158.36h-12Zm50.83,15.34a21.13,21.13,0,0,0-11.11,3,15.75,15.75,0,0,0-7,9.11v33.25a17.3,17.3,0,0,0,6.48,2.8,35.85,35.85,0,0,0,8.55,1,22.44,22.44,0,0,0,8.31-1.52,16.92,16.92,0,0,0,6.71-4.88,23.76,23.76,0,0,0,4.48-8.47,41.75,41.75,0,0,0,1.6-12.31q0-10.55-5.12-16.3A16.55,16.55,0,0,0,732.89,156.12Z" fill="#fff"/><path d="M783.56,180.74a49.35,49.35,0,0,1,3-17.9,36,36,0,0,1,22-21.5,50.71,50.71,0,0,1,17.34-2.8,49.83,49.83,0,0,1,18,3,37,37,0,0,1,13.34,8.55,36.12,36.12,0,0,1,8.24,13.35,51.1,51.1,0,0,1,2.79,17.26,49.35,49.35,0,0,1-3,17.9,36,36,0,0,1-22,21.5,51,51,0,0,1-17.35,2.8,50,50,0,0,1-18-3,37,37,0,0,1-13.34-8.55A35.91,35.91,0,0,1,786.35,198,51.1,51.1,0,0,1,783.56,180.74Zm21.41,0a31.64,31.64,0,0,0,1.44,9.75,24.06,24.06,0,0,0,4.16,7.83,18.87,18.87,0,0,0,6.55,5.2,20.2,20.2,0,0,0,8.79,1.84q9.27,0,15.11-5.92t5.83-18.7q0-11-5.43-17.82t-15.51-6.8a24.89,24.89,0,0,0-8.31,1.36,16.23,16.23,0,0,0-6.63,4.4,21.44,21.44,0,0,0-4.4,7.67A34.66,34.66,0,0,0,805,180.74Z" fill="#fff"/><path d="M880.1,203.12h19.82V158.36H880.1V140.78h36l2.4,10.55h.64a42.12,42.12,0,0,1,10.23-8.79A25.19,25.19,0,0,1,942.76,139q9.59,0,15.1,7t5.52,23.5h-18.7c0-3.84-.56-6.63-1.68-8.39a5.89,5.89,0,0,0-5.36-2.64q-6.39,0-10.31,3.2a32.13,32.13,0,0,0-6.63,7.35v34.05h34.69V220.7H880.1Z" fill="#fff"/><path d="M988.31,158.36H972.49V140.78h15.82V122.56l20.78-5.92v24.14H1051v17.58h-41.88v22.86q0,12.32,4.64,17.82t12.94,5.52a27.76,27.76,0,0,0,7.84-1,29.18,29.18,0,0,0,6.31-2.64,36.11,36.11,0,0,0,5.12-3.52l4.23-3.51,9.59,14.38a30.46,30.46,0,0,1-6.79,5.84,57.2,57.2,0,0,1-8.79,4.63,55.43,55.43,0,0,1-9.83,3.12,47.44,47.44,0,0,1-10.07,1.12q-17.91,0-26.94-10t-9-31.73Z" fill="#fff"/><path d="M1118.42,140.78h29.74v62.34h12.14V220.7h-25.25l-3.68-11.83h-.64a28.21,28.21,0,0,1-11,10.07,33.6,33.6,0,0,1-16.3,4,36.77,36.77,0,0,1-11.11-1.6,19.89,19.89,0,0,1-8.55-5.27,24.47,24.47,0,0,1-5.44-9.92,54.05,54.05,0,0,1-1.91-15.66V158.36h-9.12V140.78h29.89v45.39c0,6.51,1,11.19,3.12,14.07s5.36,4.32,9.83,4.32a17.37,17.37,0,0,0,10.63-3.52,19,19,0,0,0,6.64-8.63v-34h-9Z" fill="#fff"/><path d="M1163.5,140.78h28l2.4,10.55h.64a31.55,31.55,0,0,1,10.55-9,33.25,33.25,0,0,1,16.46-3.84,37.77,37.77,0,0,1,11.11,1.6,21.16,21.16,0,0,1,8.87,5.27,25.73,25.73,0,0,1,5.84,10,49,49,0,0,1,2.15,15.59V220.7h-20.78V175.31q0-9.75-4.39-14.07a15.19,15.19,0,0,0-11.11-4.32,18.33,18.33,0,0,0-10.79,3.44,17.17,17.17,0,0,0-6.63,8.55V220.7H1175V158.36H1163.5Z" fill="#fff"/><path d="M1266.92,203.12h28.13V158.36h-28.13V140.78h48.91v62.34h29.57V220.7h-78.48ZM1291.21,119a11.3,11.3,0,0,1,3.68-8.47q3.67-3.51,10.23-3.52t10.71,3.52a10.9,10.9,0,0,1,4,8.47,10.37,10.37,0,0,1-4,8.39q-4,3.28-10.71,3.28-6.55,0-10.23-3.28A10.73,10.73,0,0,1,1291.21,119Z" fill="#fff"/><path d="M1371.93,158.36h-15.82V140.78h15.82V122.56l20.78-5.92v24.14h41.88v17.58h-41.88v22.86q0,12.32,4.64,17.82t12.94,5.52a27.76,27.76,0,0,0,7.84-1,29.39,29.39,0,0,0,6.31-2.64,35.44,35.44,0,0,0,5.11-3.52l4.24-3.51,9.59,14.38a30.46,30.46,0,0,1-6.79,5.84,57.2,57.2,0,0,1-8.79,4.63,55.43,55.43,0,0,1-9.83,3.12,47.51,47.51,0,0,1-10.07,1.12q-17.91,0-26.94-10t-9-31.73Z" fill="#fff"/><path d="M1497.41,198.16h6.07L1519,140.78h21.41l-22.69,72.09q-3,9-5.92,16.38a59.26,59.26,0,0,1-6.71,12.87,28.13,28.13,0,0,1-9,8.39,25.37,25.37,0,0,1-12.71,3,24.57,24.57,0,0,1-6.95-1,35.51,35.51,0,0,1-6-2.32,32.1,32.1,0,0,1-4.79-2.88,28.47,28.47,0,0,1-3.36-2.79L1473,230.29a27.89,27.89,0,0,0,5,3.28,11.67,11.67,0,0,0,5.43,1.52,9.34,9.34,0,0,0,7.59-3.36q2.8-3.36,5.36-11h-11.35l-33.25-79.92h22.54Z" fill="#fff"/><path d="M503.67,300.62h71v19.5H525.57v27.66h45.56v19.5H525.57v45.23h-21.9Z" fill="#fff"/><path d="M592.39,394.93h19.82V350.17H592.39V332.59h36l2.4,10.55h.64a41.93,41.93,0,0,1,10.23-8.79A25.25,25.25,0,0,1,655,330.83q9.6,0,15.11,7t5.51,23.49H657q0-5.75-1.68-8.39a5.86,5.86,0,0,0-5.35-2.64q-6.39,0-10.31,3.2a32.13,32.13,0,0,0-6.63,7.35v34.05h34.68v17.58H592.39Z" fill="#fff"/><path d="M696.44,338a87.29,87.29,0,0,1,14.79-5,83.86,83.86,0,0,1,19.9-2.08,44,44,0,0,1,14.14,2,23.69,23.69,0,0,1,9.44,5.68,21.68,21.68,0,0,1,5.19,8.79A38.67,38.67,0,0,1,761.5,359q0,8.14-.56,13.9c-.38,3.84-.56,7.25-.56,10.23,0,2.24.1,4.74.32,7.51q.31,2.25.48,4.32h10.39v17.58H744.74l-2.1-10.87h-.8a27.34,27.34,0,0,1-9.05,8.55q-5.88,3.6-15.89,3.6-11.91,0-18.9-6.39t-7-16.95a25.42,25.42,0,0,1,2.46-11.58,20.65,20.65,0,0,1,7.15-8,34,34,0,0,1,11.27-4.63,65.72,65.72,0,0,1,14.69-1.52q2.86,0,6,.32c2.12.21,4.71.43,7.78.64a16.54,16.54,0,0,0,.32-3.2v-3q0-6.06-3.49-8.71t-10.32-2.63a48.08,48.08,0,0,0-14.6,2.07,94.57,94.57,0,0,0-10.95,4.16Zm27.21,58.66q7.58,0,11.38-2.8a18.88,18.88,0,0,0,5.53-6v-9.59c-1-.22-2.64-.46-4.74-.72a53.75,53.75,0,0,0-6.8-.4,32.25,32.25,0,0,0-6,.56,20.16,20.16,0,0,0-5.37,1.75,10.56,10.56,0,0,0-3.79,3.12,7.57,7.57,0,0,0-1.42,4.64,9.15,9.15,0,0,0,2.6,6.95Q717.64,396.69,723.65,396.69Z" fill="#fff"/><path d="M816.48,412.51V363.6a37.65,37.65,0,0,0-.64-7.75,14.89,14.89,0,0,0-1.67-4.64,5.12,5.12,0,0,0-2.56-2.23,8.82,8.82,0,0,0-3.12-.56,8.14,8.14,0,0,0-5,1.75,8.52,8.52,0,0,0-3.12,4.48v57.86H781.16V332.59h15.18l2.24,8.79h.48a19.58,19.58,0,0,1,7-7.59,19.8,19.8,0,0,1,10.87-3A21.14,21.14,0,0,1,827,333.39q4.8,2.57,6.56,8.95a17.85,17.85,0,0,1,7.35-8.55,20.53,20.53,0,0,1,10.71-3,23.39,23.39,0,0,1,7.75,1.2,13.68,13.68,0,0,1,6,4.24,20.77,20.77,0,0,1,3.91,8.23,53.89,53.89,0,0,1,1.36,13.35v54.66H851.49V361.36q0-7.19-2.32-10.07a7,7,0,0,0-5.67-2.87,8.92,8.92,0,0,0-5,1.35,7.25,7.25,0,0,0-2.88,4.4v58.34Z" fill="#fff"/><path d="M959.22,404a28.4,28.4,0,0,1-5.35,3.76,52.11,52.11,0,0,1-7.68,3.43,58.9,58.9,0,0,1-9.67,2.56,62.32,62.32,0,0,1-11.18,1A54.25,54.25,0,0,1,907,411.87a35.84,35.84,0,0,1-22.21-21.66,49.06,49.06,0,0,1-3-17.66,46.93,46.93,0,0,1,3.36-18.46,36.68,36.68,0,0,1,9.19-13.19A38.49,38.49,0,0,1,908.07,333a53.13,53.13,0,0,1,29.49-1,34.27,34.27,0,0,1,11.91,5.52,29.54,29.54,0,0,1,8.87,10.47q3.43,6.56,3.44,16.62a75.84,75.84,0,0,1-1.6,14.87H902.64a18.27,18.27,0,0,0,2.16,8.63,17,17,0,0,0,5.27,5.75,22.8,22.8,0,0,0,7.51,3.28,38,38,0,0,0,9,1q9.6,0,15.75-2.24a33.08,33.08,0,0,0,10-5.44ZM924.7,347a26.31,26.31,0,0,0-7.84,1.14,21.77,21.77,0,0,0-6.63,3.34,18.08,18.08,0,0,0-4.87,5.45,16.79,16.79,0,0,0-2.24,7.33h39.32q0-8-4.4-12.62T924.7,347Z" fill="#fff"/><path d="M1025.88,351.77l12,35h.8L1040.1,373l6.56-40.44h18.7l-16.15,79.92h-20.94l-8.95-31.65h-.8l-10.07,31.65H986.87l-16.78-79.92h20.78l7.83,44.28,1.28,9.91h.8l11.83-35Z" fill="#fff"/><path d="M1071.27,372.55a49.14,49.14,0,0,1,3-17.9,36,36,0,0,1,22-21.5,50.87,50.87,0,0,1,17.34-2.8,50,50,0,0,1,18,3,37.3,37.3,0,0,1,13.35,8.55,36.1,36.1,0,0,1,8.23,13.35,51.14,51.14,0,0,1,2.8,17.26,49.35,49.35,0,0,1-3,17.9,36,36,0,0,1-22,21.5,50.71,50.71,0,0,1-17.34,2.8,49.77,49.77,0,0,1-18-3,36.94,36.94,0,0,1-13.35-8.55,35.81,35.81,0,0,1-8.23-13.35A50.85,50.85,0,0,1,1071.27,372.55Zm21.42,0a31.64,31.64,0,0,0,1.44,9.75,23.84,23.84,0,0,0,4.15,7.83,18.7,18.7,0,0,0,6.56,5.2,20,20,0,0,0,8.79,1.84q9.27,0,15.1-5.92t5.84-18.7q0-11-5.44-17.82t-15.5-6.79a24.8,24.8,0,0,0-8.31,1.35,16.43,16.43,0,0,0-6.64,4.4,21.51,21.51,0,0,0-4.39,7.67A34.43,34.43,0,0,0,1092.69,372.55Z" fill="#fff"/><path d="M1167.81,394.93h19.82V350.17h-19.82V332.59h36l2.4,10.55h.64a41.93,41.93,0,0,1,10.23-8.79,25.25,25.25,0,0,1,13.42-3.52q9.6,0,15.11,7t5.51,23.49h-18.7q0-5.75-1.68-8.39a5.87,5.87,0,0,0-5.35-2.64q-6.4,0-10.31,3.2a31.94,31.94,0,0,0-6.64,7.35v34.05h34.69v17.58h-75.29Z" fill="#fff"/><path d="M1257.48,300.62h33.89V364.4h4.8l26.21-31.81h24.46L1314.55,369l20.94,25.89h14.86v17.58h-25.89L1297,379.43h-5.6v33.08h-20.78v-94.3h-13.11Z" fill="#fff"/></svg>
