<?xml version="1.0" encoding="UTF-8"?>
<svg width="240px" height="47px" viewBox="0 0 240 47" version="1.1" xmlns="http://www.w3.org/2000/svg" xmlns:xlink="http://www.w3.org/1999/xlink">
    <!-- Generator: Sketch 53 (72520) - https://sketchapp.com -->
    <title>Certilytics-text-logo-04</title>
    <desc>Created with Sketch.</desc>
    <g id="Symbols" stroke="none" stroke-width="1" fill="none" fill-rule="evenodd">
        <g id="header/menu" transform="translate(-120.000000, -30.000000)" fill="#515251">
            <g id="Certilytics-text-logo-04" transform="translate(120.000000, 30.000000)">
                <path d="M20.142,32.521 C19.779,32.752 19.367,32.958 18.905,33.138 C18.442,33.32 17.905,33.492 17.295,33.657 C16.684,33.822 15.983,33.903 15.191,33.903 C13.705,33.903 12.409,33.642 11.303,33.117 C10.197,32.594 9.282,31.882 8.555,30.981 C7.828,30.08 7.284,29.032 6.921,27.837 C6.558,26.641 6.377,25.388 6.377,24.078 C6.377,22.08 6.542,20.394 6.873,19.018 C7.203,17.643 7.699,16.546 8.361,15.727 C9.022,14.907 9.831,14.319 10.79,13.958 C11.749,13.598 12.857,13.417 14.113,13.417 C15.601,13.417 16.592,13.563 17.089,13.853 L17.089,18.502 L21.532,18.502 L21.532,12.085 C20.544,11.591 19.458,11.229 18.273,10.999 C17.089,10.769 15.591,10.653 13.782,10.653 C9.799,10.653 6.648,11.805 4.328,14.109 C2.008,16.413 0.848,19.753 0.848,24.13 C0.848,26.17 1.111,28.022 1.638,29.683 C2.164,31.345 2.971,32.76 4.057,33.928 C5.143,35.097 6.5,36.002 8.129,36.643 C9.758,37.285 11.659,37.606 13.831,37.606 C15.871,37.606 17.639,37.203 19.137,36.397 C20.634,35.59 21.729,34.711 22.42,33.756 L21.182,31.781 C20.852,32.045 20.505,32.292 20.142,32.521" id="Fill-1"></path>
                <path d="M43.918,20.945 C43.901,21.259 43.876,21.563 43.843,21.859 L31.898,21.859 C31.996,20.18 32.212,18.774 32.542,17.638 C32.872,16.503 33.319,15.59 33.88,14.898 C34.441,14.207 35.111,13.714 35.887,13.417 C36.664,13.121 37.565,12.973 38.59,12.973 C40.407,12.973 41.753,13.615 42.629,14.898 C43.504,16.182 43.942,17.91 43.942,20.082 C43.942,20.345 43.934,20.633 43.918,20.945 Z M46.15,12.776 C45.158,12.019 44.027,11.476 42.754,11.147 C41.481,10.818 40.184,10.653 38.862,10.653 C34.863,10.653 31.757,11.797 29.542,14.084 C27.328,16.372 26.221,19.72 26.221,24.13 C26.221,26.17 26.51,28.022 27.089,29.683 C27.667,31.345 28.518,32.76 29.642,33.928 C30.765,35.097 32.162,36.002 33.831,36.643 C35.5,37.285 37.426,37.606 39.608,37.606 C41.69,37.606 43.516,37.252 45.086,36.545 C46.657,35.837 47.871,34.875 48.731,33.657 L47.387,31.781 C46.722,32.341 45.834,32.835 44.722,33.262 C43.61,33.69 42.406,33.903 41.112,33.903 C39.518,33.903 38.14,33.665 36.978,33.188 C35.816,32.711 34.845,32.045 34.065,31.189 C33.284,30.333 32.704,29.313 32.322,28.128 C31.94,26.944 31.75,25.628 31.75,24.179 L49.073,24.179 C49.206,23.488 49.305,22.83 49.372,22.204 C49.438,21.58 49.471,20.987 49.471,20.427 C49.471,18.585 49.165,17.038 48.554,15.787 C47.942,14.537 47.141,13.533 46.15,12.776 L46.15,12.776 Z" id="Fill-2"></path>
                <path d="M64.231,13.294 C63.473,14.101 62.815,15.047 62.256,16.132 L62.058,16.132 L62.058,11.147 L53.222,11.147 L53.222,13.615 L56.875,13.615 L56.875,34.595 L53.222,34.595 L53.222,37.063 L66.353,37.063 L66.353,34.595 L62.058,34.595 L62.058,19.242 C62.618,18.255 63.145,17.499 63.638,16.972 C64.132,16.445 64.757,15.985 65.514,15.59 L71.536,15.59 L71.536,11.147 L66.798,11.147 C65.842,11.772 64.987,12.488 64.231,13.294" id="Fill-3"></path>
                <path d="M90.566,33.854 C89.825,34.217 88.945,34.397 87.925,34.397 C86.741,34.397 85.884,33.97 85.358,33.114 C84.831,32.258 84.569,30.794 84.569,28.72 L84.569,14.306 L92.763,14.306 L92.763,11.147 L84.569,11.147 L84.569,4.976 L79.385,4.976 L79.385,11.147 L74.992,11.147 L74.992,14.306 L79.385,14.306 L79.385,30.201 C79.385,32.835 79.969,34.718 81.137,35.854 C82.305,36.989 83.992,37.557 86.197,37.557 C87.053,37.557 87.883,37.458 88.69,37.26 C89.496,37.063 90.228,36.816 90.887,36.52 C91.545,36.224 92.129,35.903 92.639,35.557 C93.149,35.212 93.553,34.891 93.849,34.595 L92.615,32.67 C91.989,33.097 91.306,33.492 90.566,33.854" id="Fill-4"></path>
                <path d="M103.721,6.26 C104.84,6.26 105.721,5.98 106.363,5.421 C107.004,4.861 107.325,4.105 107.325,3.15 C107.325,2.195 107.004,1.439 106.363,0.879 C105.721,0.32 104.84,0.04 103.721,0.04 C102.668,0.04 101.804,0.32 101.13,0.879 C100.455,1.439 100.118,2.195 100.118,3.15 C100.118,4.105 100.455,4.861 101.13,5.421 C101.804,5.98 102.668,6.26 103.721,6.26" id="Fill-5"></path>
                <polyline id="Fill-6" points="106.387 11.147 97.551 11.147 97.551 13.615 101.204 13.615 101.204 34.595 97.551 34.595 97.551 37.063 110.04 37.063 110.04 34.595 106.387 34.595 106.387 11.147"></polyline>
                <polyline id="Fill-7" points="123.664 0.04 114.285 0.04 114.285 2.508 118.481 2.508 118.481 34.595 114.828 34.595 114.828 37.063 127.317 37.063 127.317 34.595 123.664 34.595 123.664 0.04"></polyline>
                <path d="M170.863,33.854 C170.122,34.217 169.241,34.397 168.222,34.397 C167.037,34.397 166.181,33.97 165.655,33.114 C165.128,32.258 164.865,30.794 164.865,28.72 L164.865,14.306 L173.059,14.306 L173.059,11.147 L164.865,11.147 L164.865,4.976 L159.682,4.976 L159.682,11.147 L146.996,11.147 L146.996,13.615 L150.007,13.615 L144.725,29.954 L143.787,33.756 L143.54,33.756 L142.553,30.004 L135.84,13.615 L139.986,13.615 L139.986,11.147 L127.25,11.147 L127.25,13.615 L130.163,13.615 L140.332,37.063 L142.059,37.063 C141.766,37.951 141.507,38.684 141.28,39.26 C141.052,39.835 140.841,40.321 140.646,40.716 C140.451,41.111 140.256,41.44 140.062,41.703 C139.866,41.966 139.656,42.229 139.427,42.493 L134.457,42.493 L134.457,46.936 L139.443,46.936 C139.772,46.804 140.175,46.467 140.653,45.924 C141.129,45.381 141.623,44.673 142.134,43.801 C142.643,42.929 143.17,41.925 143.713,40.79 C144.256,39.654 144.758,38.412 145.219,37.063 L153.076,14.306 L159.682,14.306 L159.682,30.201 C159.682,32.835 160.266,34.718 161.434,35.854 C162.602,36.989 164.289,37.557 166.494,37.557 C167.35,37.557 168.18,37.458 168.987,37.26 C169.793,37.063 170.525,36.816 171.184,36.52 C171.842,36.224 172.426,35.903 172.936,35.557 C173.446,35.212 173.849,34.891 174.146,34.595 L172.912,32.67 C172.286,33.097 171.603,33.492 170.863,33.854" id="Fill-8"></path>
                <path d="M184.018,6.26 C185.136,6.26 186.017,5.98 186.659,5.421 C187.301,4.861 187.622,4.105 187.622,3.15 C187.622,2.195 187.301,1.439 186.659,0.879 C186.017,0.32 185.136,0.04 184.018,0.04 C182.965,0.04 182.1,0.32 181.427,0.879 C180.752,1.439 180.415,2.195 180.415,3.15 C180.415,4.105 180.752,4.861 181.427,5.421 C182.1,5.98 182.965,6.26 184.018,6.26" id="Fill-9"></path>
                <polyline id="Fill-10" points="186.684 11.147 177.847 11.147 177.847 13.615 181.501 13.615 181.501 34.595 177.847 34.595 177.847 37.063 190.337 37.063 190.337 34.595 186.684 34.595 186.684 11.147"></polyline>
                <path d="M213.431,32.521 C213.068,32.752 212.656,32.958 212.194,33.138 C211.731,33.32 211.195,33.492 210.584,33.657 C209.973,33.822 209.272,33.903 208.48,33.903 C206.994,33.903 205.698,33.642 204.593,33.117 C203.487,32.594 202.571,31.882 201.844,30.981 C201.117,30.08 200.573,29.032 200.211,27.837 C199.847,26.641 199.666,25.388 199.666,24.078 C199.666,22.08 199.831,20.394 200.162,19.018 C200.492,17.643 200.988,16.546 201.65,15.727 C202.311,14.907 203.121,14.319 204.079,13.958 C205.038,13.598 206.146,13.417 207.402,13.417 C208.89,13.417 209.882,13.563 210.378,13.853 L210.378,18.502 L214.821,18.502 L214.821,12.085 C213.833,11.591 212.747,11.229 211.563,10.999 C210.378,10.769 208.88,10.653 207.071,10.653 C203.088,10.653 199.938,11.805 197.617,14.109 C195.297,16.413 194.137,19.753 194.137,24.13 C194.137,26.17 194.4,28.022 194.927,29.683 C195.453,31.345 196.26,32.76 197.346,33.928 C198.432,35.097 199.79,36.002 201.419,36.643 C203.048,37.285 204.948,37.606 207.12,37.606 C209.16,37.606 210.928,37.203 212.427,36.397 C213.924,35.59 215.018,34.711 215.709,33.756 L214.471,31.781 C214.141,32.045 213.794,32.292 213.431,32.521" id="Fill-11"></path>
                <path d="M238.861,26.746 C238.202,25.825 237.38,25.01 236.392,24.302 C235.405,23.595 234.335,22.962 233.184,22.402 C232.031,21.843 230.963,21.279 229.975,20.71 C228.988,20.14 228.165,19.531 227.507,18.88 C226.848,18.23 226.52,17.465 226.52,16.588 C226.52,15.677 226.906,14.922 227.68,14.32 C228.453,13.718 229.63,13.417 231.209,13.417 C231.768,13.417 232.295,13.45 232.789,13.514 C233.282,13.579 233.743,13.66 234.171,13.757 L235.109,14.823 L235.109,18.65 L238.268,18.65 L238.268,11.986 C237.672,11.788 237.093,11.608 236.53,11.443 C235.967,11.279 235.371,11.139 234.743,11.024 C234.114,10.908 233.418,10.818 232.657,10.752 C231.896,10.686 231.019,10.653 230.026,10.653 C228.834,10.653 227.708,10.81 226.649,11.122 C225.59,11.435 224.671,11.871 223.893,12.43 C223.116,12.99 222.495,13.656 222.031,14.429 C221.568,15.203 221.337,16.067 221.337,17.021 C221.337,18.436 221.665,19.646 222.324,20.65 C222.982,21.654 223.805,22.525 224.792,23.266 C225.779,24.006 226.848,24.665 228.001,25.24 C229.152,25.817 230.222,26.389 231.209,26.959 C232.197,27.528 233.019,28.147 233.677,28.813 C234.335,29.48 234.665,30.253 234.665,31.132 C234.665,32.271 234.154,33.166 233.135,33.817 C232.114,34.467 230.814,34.792 229.235,34.792 C228.28,34.792 227.507,34.696 226.915,34.501 C226.323,34.307 225.812,34.049 225.385,33.725 L224.397,32.705 L224.397,29.017 L221.238,29.017 L221.238,35.483 C222.098,36.043 223.28,36.529 224.786,36.94 C226.292,37.351 227.838,37.557 229.426,37.557 C230.848,37.557 232.197,37.384 233.471,37.038 C234.744,36.693 235.852,36.199 236.796,35.557 C237.739,34.916 238.483,34.134 239.029,33.213 C239.575,32.292 239.848,31.238 239.848,30.053 C239.848,28.77 239.518,27.668 238.861,26.746" id="Fill-12"></path>
            </g>
        </g>
    </g>
</svg>