<?xml version="1.0" encoding="utf-8"?>
<!-- Generator: Adobe Illustrator 23.0.1, SVG Export Plug-In . SVG Version: 6.00 Build 0)  -->
<svg version="1.1" id="Layer_1" xmlns="http://www.w3.org/2000/svg" xmlns:xlink="http://www.w3.org/1999/xlink" x="0px" y="0px"
	 viewBox="0 0 426.4 84.4" style="enable-background:new 0 0 426.4 84.4;" xml:space="preserve">
<style type="text/css">
	.st0{fill:#5E5E5E;}
</style>
<title>Certilytics-Logo-</title>
<circle class="st0" cx="184" cy="6" r="6"/>
<circle class="st0" cx="327.3" cy="6" r="6"/>
<path class="st0" d="M34.8,58.4c-0.7,0.4-1.5,0.8-2.2,1.1c-1,0.4-1.9,0.7-2.9,0.9c-1.2,0.3-2.5,0.5-3.8,0.4c-2.4,0.1-4.8-0.4-7-1.4
	c-1.9-0.9-3.7-2.2-5-3.8c-1.3-1.7-2.3-3.6-2.9-5.7c-0.7-2.2-1-4.5-1-6.8c-0.1-3.1,0.2-6.1,0.9-9.1c0.4-2.1,1.4-4.2,2.7-5.9
	c1.1-1.4,2.7-2.5,4.4-3.2c1.9-0.7,4-1,6-1c2.7,0,4.4,0.3,5.3,0.8v8.4h8V21.7c-1.9-0.9-3.8-1.6-5.9-2C28.7,19.2,26,19,23.3,19
	c-7.2,0-12.8,2.1-17,6.2S0,35.4,0,43.3c0,3.4,0.4,6.8,1.4,10c1.7,5.8,6.1,10.5,11.8,12.6c3.3,1.2,6.8,1.8,10.3,1.7
	c3.3,0.1,6.6-0.7,9.6-2.2c2-1,3.9-2.4,5.4-4.1l-2.6-3.5C35.4,58,35.1,58.2,34.8,58.4z"/>
<path class="st0" d="M114.1,23.9c-1.4,1.5-2.6,3.2-3.6,5.1h-0.3v-9H94.3v4.4h6.6v37.7h-6.6v4.4h23.6v-4.4h-7.7V34.5
	c0.8-1.5,1.7-2.8,2.9-4.1c1-1,2.1-1.8,3.4-2.5h10.8v-8h-8.5C117,21.1,115.5,22.4,114.1,23.9z"/>
<polygon class="st0" points="188.7,20 172.8,20 172.8,24.4 179.4,24.4 179.4,62.2 172.8,62.2 172.8,66.6 195.3,66.6 195.3,62.2 
	188.7,62.2 "/>
<polygon class="st0" points="218.6,0 201.7,0 201.7,4.4 209.3,4.4 209.3,62.2 202.7,62.2 202.7,66.6 225.2,66.6 225.2,62.2 
	218.6,62.2 "/>
<path class="st0" d="M303.5,60.8c-1.5,0.7-3.1,1-4.8,1c-1.8,0.1-3.6-0.7-4.6-2.3c-1-1.5-1.4-4.2-1.4-7.9V24.4h14.8V20h-14.8V8.9
	h-9.3V20h-22.2v4.4h5.4l-9.9,29.4l-1.7,6.8h-0.5l-1.8-6.8l-11.7-29.5h7.5V20h-22.9v4.4h5.2l17.9,42.2h3.8l-3.2,9.8H239v8h11.7
	l1.9-1.7l19.7-58.3h11.1v29.8c0,4.7,1,8.1,3.1,10.2c2.1,2,5.1,3.1,9.1,3.1c1.5,0,3-0.2,4.5-0.5c1.4-0.3,2.7-0.8,4-1.3
	c1.1-0.5,2.1-1.1,3.1-1.7c0.8-0.5,1.5-1.1,2.2-1.7l-2.2-3.5C306,59.5,304.8,60.2,303.5,60.8z"/>
<path class="st0" d="M160.9,60.8c-1.5,0.7-3.1,1-4.8,1c-1.8,0.1-3.6-0.7-4.6-2.3c-0.9-1.5-1.4-4.2-1.4-7.9V24.4h14.7V20h-14.7V8.9
	h-9.3V20h-7.9v4.4h7.9v29.8c0,4.7,1,8.1,3.1,10.2c2.1,2,5.1,3.1,9.1,3.1c1.5,0,3-0.2,4.5-0.5c1.4-0.3,2.7-0.8,4-1.3
	c1.1-0.5,2.1-1.1,3.1-1.7c0.8-0.5,1.5-1.1,2.2-1.7l-2.2-3.5C163.4,59.5,162.1,60.2,160.9,60.8z"/>
<polygon class="st0" points="331.9,20 316.1,20 316.1,24.4 322.6,24.4 322.6,62.2 316.1,62.2 316.1,66.6 338.5,66.6 338.5,62.2 
	331.9,62.2 "/>
<path class="st0" d="M424.6,48.1c-1.2-1.7-2.7-3.2-4.4-4.4c-1.8-1.3-3.8-2.4-5.8-3.4c-2.1-1-4-2-5.8-3c-1.6-0.9-3.1-2-4.4-3.3
	c-1.1-1.1-1.8-2.6-1.8-4.1c0-1.6,0.8-3.1,2.1-4.1c1.4-1.1,3.5-1.6,6.4-1.6c0.9,0,1.9,0.1,2.8,0.2c0.9,0.1,1.7,0.3,2.5,0.4l1.7,1.9
	v6.6h5.7V21.5c-1.1-0.3-2.1-0.7-3.1-1c-1.1-0.3-2.1-0.6-3.2-0.8c-1.1-0.2-2.4-0.4-3.8-0.5s-3-0.2-4.7-0.2c-2.1,0-4.1,0.3-6.1,0.8
	c-1.8,0.5-3.5,1.3-5,2.3c-1.4,1-2.5,2.2-3.4,3.6c-0.8,1.4-1.3,3-1.2,4.7c-0.1,2.3,0.6,4.6,1.8,6.5c1.2,1.8,2.7,3.4,4.4,4.7
	c1.8,1.4,3.7,2.6,5.8,3.6c2.1,1,4,2.1,5.8,3.1c1.6,0.9,3.1,2,4.4,3.3c1.1,1.1,1.8,2.6,1.8,4.2c0,2-1,3.8-2.8,4.8
	c-2.1,1.2-4.5,1.8-7,1.8c-1.4,0-2.8-0.1-4.2-0.5c-1-0.3-1.9-0.8-2.8-1.4l-1.8-1.8V52h-5.7v11.7c2,1.2,4.1,2.1,6.4,2.6
	c2.7,0.7,5.5,1.1,8.3,1.1c2.5,0,4.9-0.3,7.3-0.9c2.1-0.5,4.2-1.4,6-2.7c1.6-1.1,3-2.5,4-4.2c1-1.7,1.5-3.7,1.5-5.7
	C426.4,51.9,425.8,49.8,424.6,48.1z"/>
<path class="st0" d="M379.5,58.4c-0.7,0.4-1.5,0.8-2.3,1.1c-1,0.4-1.9,0.7-2.9,0.9c-1.2,0.3-2.5,0.5-3.8,0.4c-2.4,0.1-4.8-0.4-7-1.4
	c-1.9-0.9-3.6-2.2-5-3.8c-1.3-1.7-2.3-3.6-2.9-5.7c-0.7-2.2-1-4.5-1-6.8c-0.1-3.1,0.2-6.1,0.9-9.1c0.4-2.1,1.4-4.2,2.7-5.9
	c1.1-1.4,2.7-2.5,4.4-3.2c1.9-0.7,4-1,6-1c2.7,0,4.4,0.3,5.4,0.8v8.4h8V21.7c-1.9-0.9-3.8-1.6-5.9-2c-2.7-0.5-5.4-0.7-8.1-0.6
	c-7.2,0-12.8,2.1-17,6.2s-6.3,10.1-6.3,18c0,3.4,0.4,6.8,1.4,10c1.7,5.8,6,10.5,11.7,12.6c3.3,1.2,6.8,1.8,10.2,1.7
	c3.3,0.1,6.6-0.7,9.5-2.2c2-1,3.9-2.4,5.4-4.1l-2.6-3.5C380.1,58,379.8,58.2,379.5,58.4z"/>
<path class="st0" d="M81,22.9c-1.8-1.4-3.9-2.4-6.1-2.9c-2.3-0.6-4.6-0.9-7-0.9c-7.2,0-12.8,2.5-16.5,6.2c-4,4-6.3,10.1-6.3,18
	c-0.1,3.4,0.4,6.8,1.4,10c0.8,2.8,2.3,5.5,4.3,7.6c2.1,2.2,4.6,3.9,7.5,5c3,1.2,5.8,1.7,10.9,1.7c3.4,0.1,6.7-0.6,9.8-1.9
	c2.6-1.1,4.9-2.9,6.6-5.2l-2.4-3.4c-1.4,1.1-3.1,2.1-4.8,2.7c-2.1,0.8-4.3,1.2-6.5,1.2c-2.5,0.1-5.1-0.4-7.4-1.3
	c-2-0.8-3.8-2-5.3-3.6c-1.4-1.6-2.5-3.5-3.1-5.5c-0.7-2.3-1-4.7-1-7.1h31.1c0.2-1.2,0.4-2.4,0.5-3.5c0.1-1.1,0.2-2.1,0.2-3.2
	c0.1-2.9-0.5-5.7-1.6-8.3C84.3,26.2,82.8,24.3,81,22.9z M77,37.6c0,0.6-0.1,1.1-0.1,1.6H55.3c0-13.2,8.7-15.1,12-15.1s5.9,0.7,7.5,3
	s2.1,5,2.1,8.9C77,36.5,77,37,77,37.6L77,37.6z"/>
</svg>
