<?xml version="1.0" encoding="utf-8"?>
<!-- Generator: Adobe Illustrator 26.0.1, SVG Export Plug-In . SVG Version: 6.00 Build 0)  -->
<svg version="1.1" id="Layer_1" xmlns="http://www.w3.org/2000/svg" xmlns:xlink="http://www.w3.org/1999/xlink" x="0px" y="0px"
	 viewBox="0 0 1617.9 348.5" style="enable-background:new 0 0 1617.9 348.5;" xml:space="preserve">
<style type="text/css">
	.st0{fill:#001C3B;}
	.st1{fill:none;stroke:#5786E4;stroke-width:20.5666;stroke-linecap:round;stroke-linejoin:round;}
	.st2{fill:none;stroke:#5786E4;stroke-width:20.5666;stroke-linecap:round;stroke-linejoin:round;stroke-dasharray:0,62.4177;}
	.st3{fill:none;stroke:#8FAFED;stroke-width:20.5666;stroke-linecap:round;stroke-linejoin:round;}
	.st4{fill:none;stroke:#8FAFED;stroke-width:20.5666;stroke-linecap:round;stroke-linejoin:round;stroke-dasharray:0,62.4177;}
	.st5{fill:none;stroke:#C7D7F6;stroke-width:20.5666;stroke-linecap:round;stroke-linejoin:round;}
	.st6{fill:none;stroke:#C7D7F6;stroke-width:20.5666;stroke-linecap:round;stroke-linejoin:round;stroke-dasharray:0,62.4177;}
	.st7{display:none;fill:#1F5EDB;}
	.st8{fill:#1F5EDB;}
	.st9{fill:none;stroke:#FFFFFF;stroke-width:10;stroke-linecap:round;stroke-linejoin:round;}
	.st10{fill:none;stroke:#FFFFFF;stroke-width:10;stroke-linecap:round;stroke-linejoin:round;stroke-dasharray:0,47.8246;}
	.st11{fill:none;stroke:#FFFFFF;stroke-width:10;stroke-linecap:round;stroke-linejoin:round;stroke-dasharray:0,50.9333;}
	.st12{fill:#8FAFED;}
	.st13{fill:none;stroke:#FFFFFF;stroke-width:10;stroke-linecap:round;stroke-linejoin:round;stroke-dasharray:0,48.9885;}
	.st14{fill:none;stroke:#F5695C;stroke-width:12.3715;stroke-linecap:round;stroke-linejoin:round;stroke-miterlimit:10;}
	.st15{fill:none;stroke:#FFFFFF;stroke-width:10;stroke-linecap:round;stroke-linejoin:round;stroke-dasharray:0,52.811;}
	.st16{fill:#103D8B;}
	.st17{fill:#F5695C;}
	.st18{fill:#042B4F;}
	.st19{fill:#FFFFFF;}
	.st20{fill:#5E5E5E;}
	.st21{fill:#F4695B;}
	.st22{opacity:0.26;fill:#FFFFFF;}
	.st23{fill:#E6E6E6;}
	.st24{fill:#1A1617;}
	.st25{fill:#3D3D3D;}
	.st26{fill:#F6D5B8;}
	.st27{fill:#E6C6AA;}
	.st28{fill:#383032;}
	.st29{fill:#494949;}
	.st30{fill:#F23034;}
	.st31{fill:#174EB3;}
	.st32{opacity:0.42;}
	.st33{fill:#FFFFFF;stroke:#C9C9C9;stroke-width:9.5664;stroke-linecap:round;stroke-linejoin:round;stroke-miterlimit:10;}
	.st34{fill:#7D7D7D;}
	.st35{fill:none;stroke:#FFFFFF;stroke-width:7.5134;stroke-miterlimit:10;}
	.st36{fill:#1F5EDB;stroke:#FFFFFF;stroke-width:8.2987;stroke-linejoin:bevel;stroke-miterlimit:10;}
	
		.st37{fill-rule:evenodd;clip-rule:evenodd;fill:#1F5EDB;stroke:#FFFFFF;stroke-width:8.8772;stroke-linejoin:bevel;stroke-miterlimit:10;}
	.st38{fill:#1F5EDB;stroke:#FFFFFF;stroke-width:6.2548;stroke-linejoin:bevel;stroke-miterlimit:10;}
	.st39{fill:none;stroke:#F5695C;stroke-width:10;stroke-linecap:round;stroke-linejoin:round;stroke-miterlimit:10;}
	.st40{fill:none;stroke:#FFFFFF;stroke-width:6.2548;stroke-linejoin:bevel;stroke-miterlimit:10;}
	.st41{fill:none;stroke:#FFFFFF;stroke-width:8.2987;stroke-linejoin:bevel;stroke-miterlimit:10;}
	.st42{fill:#5988E4;}
</style>
<polygon class="st20" points="190.6,136.3 261.9,178.7 267,170.1 200.3,130.5 267.1,90.4 261.9,81.9 188,126.2 114,170.6 
	116.6,174.9 114,179.2 188,223.1 188.1,222.9 261.9,266.7 267,258.1 193.1,214.2 193,214.4 126.4,174.9 "/>
<g>
	<circle class="st21" cx="117.2" cy="175" r="27.3"/>
</g>
<g>
	<circle class="st8" cx="190.5" cy="218.5" r="27.3"/>
</g>
<g>
	<circle class="st8" cx="263.9" cy="262" r="27.3"/>
</g>
<g>
	<circle class="st21" cx="190.5" cy="130.5" r="27.3"/>
</g>
<g>
	<circle class="st8" cx="263.9" cy="86.5" r="27.3"/>
</g>
<g>
	<circle class="st21" cx="264.7" cy="174.5" r="27.3"/>
</g>
<circle class="st20" cx="879" cy="78.2" r="16"/>
<circle class="st20" cx="1262.7" cy="78.2" r="16"/>
<path class="st20" d="M479.2,218.7c-1.8,1.1-3.7,2.1-6,3c-2.2,0.9-4.8,1.7-7.8,2.5c-2.9,0.8-6.3,1.2-10.1,1.2
	c-7.2,0-13.4-1.3-18.7-3.8c-5.3-2.5-9.7-6-13.2-10.3c-3.5-4.3-6.1-9.4-7.9-15.2c-1.7-5.8-2.6-11.8-2.6-18.1c0-9.6,0.8-17.7,2.4-24.4
	c1.6-6.6,4-11.9,7.2-15.9c3.2-3.9,7.1-6.8,11.7-8.5c4.6-1.7,10-2.6,16-2.6c7.2,0,11.9,0.7,14.3,2.1v22.4h21.4v-30.9
	c-4.8-2.4-10-4.1-15.7-5.2c-5.7-1.1-12.9-1.7-21.6-1.7c-19.2,0-34.4,5.6-45.5,16.6c-11.2,11.1-16.8,27.2-16.8,48.3
	c0,9.8,1.3,18.8,3.8,26.8c2.5,8,6.4,14.8,11.7,20.5c5.2,5.6,11.8,10,19.6,13.1c7.8,3.1,17,4.6,27.5,4.6c9.8,0,18.3-1.9,25.6-5.8
	c6.3-3.4,11.1-7.1,14.5-11l-7-9.5C481,217.5,480.2,218.1,479.2,218.7z"/>
<path class="st20" d="M691.7,126c-3.6,3.9-6.8,8.4-9.5,13.7h-1v-24h-42.6v11.9h17.6v101.1h-17.6v11.9h63.3v-11.9h-20.7v-74
	c2.7-4.8,5.2-8.4,7.6-10.9c2.4-2.5,5.4-4.8,9-6.7h29v-21.4H704C699.4,118.7,695.3,122.2,691.7,126z"/>
<polygon class="st20" points="891.5,115.7 849,115.7 849,127.6 866.6,127.6 866.6,228.7 849,228.7 849,240.6 909.1,240.6 
	909.1,228.7 891.5,228.7 "/>
<polygon class="st20" points="971.5,62.2 926.3,62.2 926.3,74.1 946.6,74.1 946.6,228.7 929,228.7 929,240.6 989.1,240.6 
	989.1,228.7 971.5,228.7 "/>
<path class="st20" d="M1198.9,225.1c-3.6,1.7-7.8,2.6-12.7,2.6c-5.7,0-9.8-2.1-12.4-6.2c-2.5-4.1-3.8-11.2-3.8-21.2v-72.8h39.5
	v-11.9H1170V86h-25v29.7h-13.7h-24.5h-21.2v11.9h14.5l-26.5,78.7l-4.5,18.3h-1.2l-4.8-18.1l-31.3-79h20v-11.9h-61.4v11.9h14l48,113
	h10.1l-8.5,26.2h-28v21.4h31.2l5.1-4.5l52.8-156h16h13.7v79.9c0,12.7,2.8,21.8,8.4,27.2c5.6,5.5,13.8,8.2,24.4,8.2
	c4.1,0,8.1-0.5,12-1.4c3.9-1,7.4-2.1,10.6-3.6c3.2-1.4,6-3,8.4-4.6c2.5-1.7,4.4-3.2,5.8-4.6l-5.9-9.3
	C1205.8,221.4,1202.5,223.3,1198.9,225.1z"/>
<path class="st20" d="M816.9,225.1c-3.6,1.7-7.8,2.6-12.7,2.6c-5.7,0-9.8-2.1-12.4-6.2c-2.5-4.1-3.8-11.2-3.8-21.2v-72.8h39.5v-11.9
	H788V86h-25v29.7h-21.2v11.9h21.2v79.9c0,12.7,2.8,21.8,8.4,27.2c5.6,5.5,13.8,8.2,24.4,8.2c4.1,0,8.1-0.5,12-1.4
	c3.9-1,7.4-2.1,10.6-3.6c3.2-1.4,6-3,8.4-4.6c2.5-1.7,4.4-3.2,5.8-4.6l-5.9-9.3C823.8,221.4,820.5,223.3,816.9,225.1z"/>
<polygon class="st20" points="1275.2,115.7 1232.6,115.7 1232.6,127.6 1250.2,127.6 1250.2,228.7 1232.6,228.7 1232.6,240.6 
	1292.8,240.6 1292.8,228.7 1275.2,228.7 "/>
<path class="st20" d="M1523.3,190.8c-3.2-4.4-7.1-8.4-11.9-11.8c-4.8-3.4-9.9-6.5-15.5-9.2c-5.6-2.7-10.7-5.4-15.5-8.2
	c-4.8-2.7-8.7-5.7-11.9-8.8c-3.2-3.1-4.8-6.8-4.8-11c0-4.4,1.9-8,5.6-10.9c3.7-2.9,9.4-4.3,17-4.3c2.7,0,5.2,0.2,7.6,0.5
	c2.4,0.3,4.6,0.7,6.7,1.2l4.5,5.1v17.7h15.2v-31.4c-2.9-1-5.7-1.8-8.4-2.6c-2.7-0.8-5.6-1.5-8.6-2c-3-0.6-6.4-1-10-1.3
	c-3.7-0.3-7.9-0.5-12.7-0.5c-5.7,0-11.2,0.8-16.3,2.3c-5.1,1.5-9.5,3.6-13.3,6.3c-3.7,2.7-6.7,5.9-9,9.6c-2.2,3.7-3.3,7.9-3.3,12.5
	c0,6.8,1.6,12.6,4.8,17.5c3.2,4.8,7.1,9,11.9,12.6c4.8,3.6,9.9,6.7,15.5,9.5c5.5,2.8,10.7,5.5,15.5,8.3c4.8,2.7,8.7,5.7,11.9,8.9
	c3.2,3.2,4.8,6.9,4.8,11.2c0,5.5-2.5,9.8-7.4,12.9c-4.9,3.1-11.2,4.7-18.8,4.7c-4.6,0-8.3-0.5-11.2-1.4c-2.9-0.9-5.3-2.2-7.4-3.7
	l-4.8-4.9v-18h-15.2v31.4c4.1,2.7,9.8,5,17.1,7c7.3,2,14.7,3,22.4,3c6.9,0,13.3-0.8,19.5-2.5c6.1-1.7,11.5-4,16-7.1
	c4.5-3.1,8.1-6.9,10.8-11.3c2.6-4.4,3.9-9.5,3.9-15.2C1528.1,200.6,1526.5,195.3,1523.3,190.8z"/>
<path class="st20" d="M1402.4,218.7c-1.7,1.1-3.7,2.1-6,3c-2.2,0.9-4.8,1.7-7.8,2.5c-2.9,0.8-6.3,1.2-10.1,1.2
	c-7.2,0-13.4-1.3-18.7-3.8c-5.3-2.5-9.7-6-13.2-10.3c-3.5-4.3-6.1-9.4-7.9-15.2c-1.8-5.8-2.6-11.8-2.6-18.1c0-9.6,0.8-17.7,2.4-24.4
	c1.6-6.6,4-11.9,7.2-15.9c3.2-3.9,7.1-6.8,11.7-8.5c4.6-1.7,10-2.6,16-2.6c7.2,0,11.9,0.7,14.3,2.1v22.4h21.4v-30.9
	c-4.8-2.4-10-4.1-15.7-5.2c-5.7-1.1-12.9-1.7-21.6-1.7c-19.2,0-34.4,5.6-45.5,16.6c-11.2,11.1-16.8,27.2-16.8,48.3
	c0,9.8,1.3,18.8,3.8,26.8c2.5,8,6.4,14.8,11.7,20.5c5.2,5.6,11.8,10,19.6,13.1c7.8,3.1,17,4.6,27.5,4.6c9.8,0,18.3-1.9,25.6-5.8
	c6.3-3.4,11.1-7.1,14.5-11l-7-9.5C1404.2,217.5,1403.3,218.1,1402.4,218.7z"/>
<path class="st20" d="M602.9,123.5c-4.8-3.6-10.2-6.3-16.4-7.8c-6.1-1.6-12.4-2.4-18.7-2.4c-19.3,0-34.3,6.8-44.1,16.6
	c-10.8,10.8-16.8,27-16.8,48.3c0,9.8,1.2,18.6,3.8,26.8c2.6,8.1,6.2,14.8,11.7,20.5c5.4,5.6,11.9,10.1,20,13.2
	c8,3.1,15.6,4.5,29.1,4.5c10,0,18.8-1.7,26.4-5.1c7.6-3.4,13.4-8,17.6-13.9l-6.5-9c-3.2,2.7-7.5,5.1-12.8,7.1
	c-5.4,2.1-11.2,3.1-17.4,3.1c-7.7,0-14.3-1.1-19.9-3.4c-5.6-2.3-10.3-5.5-14-9.6c-3.8-4.1-6.6-9-8.4-14.7c-1.8-5.7-2.8-12-2.8-19
	H617c0.6-3.3,1.1-6.5,1.4-9.5c0.3-3,0.5-5.9,0.5-8.6c0-8.9-1.5-16.3-4.4-22.4C611.6,132,607.7,127.2,602.9,123.5z M592.2,162.9
	c-0.1,1.5-0.2,3-0.4,4.4h-57.6c0-35.3,23.4-40.5,32.2-40.5c8.8,0,15.9,1.8,20.1,8c4.2,6.2,5.7,13.5,5.7,23.9
	C592.3,160,592.3,161.4,592.2,162.9z"/>
</svg>
