<?xml version="1.0" encoding="utf-8"?>
<!-- Generator: Adobe Illustrator 26.0.1, SVG Export Plug-In . SVG Version: 6.00 Build 0)  -->
<svg version="1.1" id="Layer_1" xmlns="http://www.w3.org/2000/svg" xmlns:xlink="http://www.w3.org/1999/xlink" x="0px" y="0px"
	 viewBox="0 0 403.6 389" style="enable-background:new 0 0 403.6 389;" xml:space="preserve">
<style type="text/css">
	.bars-st19{fill:#FFFFFF;}
	.bars-st41{fill:none;stroke:#FFFFFF;stroke-width:8.2987;stroke-linejoin:bevel;stroke-miterlimit:10;}
</style>
<g>
	
		<rect x="47.8" y="274.2" transform="matrix(6.123234e-17 -1 1 6.123234e-17 -210.0007 376.1085)" class="bars-st41" width="70.5" height="37.6"/>
	
		<rect x="91.2" y="252.4" transform="matrix(6.123234e-17 -1 1 6.123234e-17 -122.8696 419.4953)" class="bars-st41" width="114.2" height="37.6"/>
	
		<rect x="131.1" y="226.9" transform="matrix(6.123234e-17 -1 1 6.123234e-17 -32.1964 459.3399)" class="bars-st41" width="165" height="37.6"/>
	
		<rect x="223.2" y="253.8" transform="matrix(6.123234e-17 -1 1 6.123234e-17 6.2191 551.4423)" class="bars-st41" width="111.4" height="37.6"/>
	<g>
		<polygon class="bars-st19" points="213.6,141.1 205.3,126.8 197,112.5 213.6,112.5 230.1,112.5 221.8,126.8 		"/>
	</g>
	<rect x="198.1" y="60.7" class="bars-st19" width="141.3" height="8.1"/>
	<rect x="198.1" y="82.3" class="bars-st19" width="97" height="8.1"/>
</g>
</svg>
