<?xml version="1.0" encoding="utf-8"?>
<!-- Generator: Adobe Illustrator 26.0.1, SVG Export Plug-In . SVG Version: 6.00 Build 0)  -->
<svg version="1.1" id="Layer_1" xmlns="http://www.w3.org/2000/svg" xmlns:xlink="http://www.w3.org/1999/xlink" x="0px" y="0px"
	 viewBox="0 0 259.6 250.4" style="enable-background:new 0 0 259.6 250.4;" xml:space="preserve">
<style type="text/css">
	.check-st19{fill:#FFFFFF;}
	.check-st40{fill:none;stroke:#FFFFFF;stroke-width:6.2548;stroke-linejoin:bevel;stroke-miterlimit:10;}
</style>
<g>
	<rect x="120.1" y="67.1" class="check-st19" width="98.8" height="8.2"/>
	<rect x="120.1" y="89" class="check-st19" width="67.8" height="8.2"/>
	<polygon class="check-st40" points="98.9,57.3 86.5,44.1 67,62.4 48.7,42.9 35.5,55.3 53.8,74.9 34.3,93.2 46.7,106.4 66.2,88.1 
		84.6,107.6 97.8,95.1 79.4,75.6 	"/>
	<rect x="126.6" y="168.3" class="check-st19" width="101" height="8.4"/>
	<rect x="126.6" y="190.7" class="check-st19" width="69.3" height="8.4"/>
	<polygon class="check-st40" points="113.7,155.3 102,135.8 61.5,181.6 44.9,165 32,177.9 48.6,194.5 61.5,207.5 74.5,194.5 74.5,194.5 	
		"/>
</g>
</svg>
