<svg id="a71c8af8-da9e-497b-8050-7857e42de1c6" data-name="Layer 1" xmlns="http://www.w3.org/2000/svg" viewBox="0 0 572.33 504.57"><path d="M525.77,159.74C474.66,40.12,336.25-15.42,216.63,35.69S41.46,225.2,92.57,344.83a234.54,234.54,0,0,0,70,91.84c73.45-19.76,152.15-22.3,229.17-12.21,20.1,2.77,38.76,8,55.31,18.86C534.51,380.31,569.9,263,525.77,159.74Z" fill="#f5695c"/><path d="M387.49,56.41c43,43.11,66,101.64,62.08,246.58L287.32,291l56.37-222.5A26.13,26.13,0,0,1,387.49,56.41Z" fill="#001c3b"/><path d="M238.28,334.57c-1.06-.53-1.06-1.06.53-2.12A82.4,82.4,0,0,0,252,321.89c12.15-13.73,12.15-31.69,11.62-43.83,0-2.64,101.92-10,101.92-10-.52,2.64-5.28,1.59-5.28,13.21,0,1,5.28,26.93,6.87,36.44,6.86,9.5,17.95,12.67,22.18,16.37,1.58,1.58,20.07,19,18.48,16.9-2.11-2.12,14.26,26.93-5.28,9.5,4.23,5.28,49.64,29.58,49.64,29.58l-141,15.31L203.43,364.14Z" fill="#fddad6"/><path d="M384,234.23c20.59,1.58,24.82-19.54,26.93-33.28,1.06-10.56,2.11-41.72-17.43-35.38-20.06,6.34-10.56,65-10.56,65,1.59,0,3.17.53,4.76.53h-4.23C381.4,231.06,381.4,234.23,384,234.23Z" fill="#fddad6"/><path d="M229.83,83.19c9.51-24.82,29-38.55,52.81-42.25,6.87-.53,13.73-.53,20.6-.53h1.05c20.6,0,40.67,1.58,57.57,16.9,15.84,14.26,23.76,37,26.93,58.62,4.23,26.4,2.64,53.34.53,79.22-1.58,19.54-.53,41.19-7.39,59.67-9,24.29-27.47,35.38-48.59,43.83-21.65,9-42.78,2.64-63.37-7.39-23.24-11.09-37-35.38-40.14-61.79-2.64-21.65-5.81-43.83-7.39-65.48C220.85,137.05,220.33,108,229.83,83.19Z" fill="#fddad6"/><path d="M311.17,96.67h0q-31.11-.58-62.2-2.33c-7.26-.39-14-.78-21.26-2.73-3.11-.77-6.22-2.33-7.77-4.66-2.08-3.51-1-7.79,1-11.29,9.85-20.62,30-33.49,52.8-38.15s49.3-7.88,72.11-1.27c16.59,4.67,38.38,20.36,39.93,40.2,1,15.17-25.4,17.51-35.77,18.68C337.09,97.06,324.13,97.06,311.17,96.67Z" fill="#001c3b"/><path d="M368.72,87.94h0a6.68,6.68,0,0,1,.53-3.17c.53-1,1.59-1.58,2.11-2.11,2.64-2.11,5.81-3.7,8.45-5.81,1.59-1.06,3.17-2.11,5.28-2.11,3.7,0,6.34,3.17,7.93,6.33,5.28,9.51,7.39,20.6,7.39,31.16a166.86,166.86,0,0,1-3.7,32.22c-1.58,7.39-2.64,18.48-6.33,24.82-4.23-1.59-6.87-12.68-7.93-16.9a139.12,139.12,0,0,1-6.33-21.13A239.33,239.33,0,0,1,368.72,87.94Z" fill="#001c3b"/><path d="M246.35,171.73c-2.27-1.7-2.83-4-.57-5.66.57-.56,1.13-1.13,1.7-1.13,4-3.39,13.58-6.22,20.93-6.22,8.49.56,10.75,1.13,18.11,2.83,4,1.13,6.22,4,6.22,6.79,0,2.26-6.3.37-6.3.37C262.11,155.7,246.91,172.3,246.35,171.73Zm40.73-5.09Z" fill="#001c3b"/><path d="M310.1,299.71s23.24,4.75,53.34-18.48v17.95C364,299.18,338.62,310.8,310.1,299.71Z" fill="#fab4ae"/><path d="M286.81,96.09s-88.12,46.48-16.07,204.59l-96.42,3.83S161.77,149,223.2,66.82c16.11-21.53,40.53-22.22,64.34-27.93C337.31,27,286.81,96.09,286.81,96.09Z" fill="#001c3b"/><ellipse cx="347.6" cy="186.7" rx="4.75" ry="8.98" fill="#001c3b"/><path d="M279.47,186.7c0,4.75-2.11,9-4.75,9s-4.75-4.22-4.75-9,2.11-9,4.75-9C277.36,177.19,279.47,181.41,279.47,186.7Z" fill="#001c3b"/><path d="M193.39,120.68A82.91,82.91,0,1,1,110,38.3,83.39,83.39,0,0,1,193.39,120.68Z" fill="#f5695c" stroke="#fff" stroke-miterlimit="10" stroke-width="5.28"/><path d="M493.4,378.47c-10-7.92-22.71-12.14-33.28-15.84-11.09-3.7-23.23-9.51-35.38-15.31S400.45,335.7,388.83,332l-1.58-.53-.53,2.11c4.75,42.25-50.17,54.93-83.44,53.87-31.16-1.05-57.57-23.76-64.43-52.81l-.53-2.11-2.11.53c-11.09,3.69-25.35,9.5-39.61,15.31-13.73,5.81-28,11.62-39.08,15.32-8.24,2.88-29.35,13.36-42.76,21.6a233.24,233.24,0,0,0,47.81,51.37h0A236.34,236.34,0,0,0,322.69,487.5l1.31-.05A235.6,235.6,0,0,0,501.77,388,43.68,43.68,0,0,0,493.4,378.47Z" fill="#fab4ae"/><path d="M326.17,214.55h0a11.81,11.81,0,1,1-23.62,0h-3.44a15.25,15.25,0,0,0,30.49,0h-3.43Z" fill="#fab4ae"/><path d="M314.36,272.61a26.5,26.5,0,0,0,26.5-26.5h-53A26.49,26.49,0,0,0,314.36,272.61Z" fill="#fff" stroke="#fab4ae" stroke-miterlimit="10" stroke-width="3.96"/><rect x="96.75" y="75.12" width="27.46" height="92.2" fill="#fff"/><rect x="96.75" y="75.12" width="27.46" height="92.2" transform="translate(231.69 10.73) rotate(90)" fill="#fff"/><path d="M334.46,168.71s-6.31,1.89-6.31-.37c0-2.83,2.26-5.66,6.23-6.79,7.35-1.7,9.61-2.27,18.1-2.83,7.36,0,17,2.83,20.93,6.22.57,0,1.14.57,1.7,1.13,2.26,1.7,1.7,4-.56,5.66C374,172.3,358.78,155.7,334.46,168.71Zm-.65-2.07Z" fill="#001c3b"/></svg>