<svg id="a5eb1212-90bd-4f5a-a5fe-e3d49778e7ad" data-name="Layer 1" xmlns="http://www.w3.org/2000/svg" viewBox="0 0 193.95 788.34"><path d="M68.75,698.2a18,18,0,1,1-18,18,18,18,0,0,1,18-18m0-5.26A23.24,23.24,0,1,0,92,716.18a23.23,23.23,0,0,0-23.24-23.24Z" fill="#8fafed"/><circle cx="126.94" cy="716.18" r="23.24" fill="#8fafed"/><polygon points="126.94 550.89 138.31 570.58 149.68 590.28 126.94 590.28 104.19 590.28 115.57 570.58 126.94 550.89" fill="#8fafed"/><path d="M68.75,560.89l7,12.19,7,12.19H54.67l7-12.19,7-12.19m0-10L57.38,570.58,46,590.28H91.49l-11.37-19.7L68.75,550.89Z" fill="#8fafed"/><path d="M139,628.29v26.64H112.34V628.29H139m5-5H107.34v36.65H144V623.28Z" fill="#8fafed"/><rect x="52.05" y="623.28" width="36.65" height="36.65" transform="translate(711.98 571.24) rotate(90)" fill="#8fafed"/><circle cx="68.75" cy="505.97" r="23.24" fill="#8fafed"/><path d="M126.94,488a18,18,0,1,1-18,18,18,18,0,0,1,18-18m0-5.26A23.24,23.24,0,1,0,150.18,506a23.23,23.23,0,0,0-23.24-23.24Z" fill="#8fafed"/><path d="M126.52,344.27l7.64,13.22,7.63,13.23H111.25l7.64-13.23,7.63-13.22m0-10-12,20.73-12,20.73h47.87l-12-20.73-12-20.73Z" fill="#8fafed"/><polygon points="69.01 334.26 80.98 354.99 92.94 375.72 69.01 375.72 45.08 375.72 57.04 354.99 69.01 334.26" fill="#8fafed"/><rect x="107.65" y="412.52" width="38.57" height="38.57" transform="translate(558.74 304.86) rotate(90)" fill="#8fafed"/><path d="M81.25,417.78v28h-28v-28h28m5.27-5.26H48v38.57H86.52V412.52Z" fill="#8fafed"/><path d="M69,265.14a18,18,0,1,1-18,18,18,18,0,0,1,18-18m0-5.27a23.24,23.24,0,1,0,23.24,23.24A23.25,23.25,0,0,0,69,259.87Z" fill="#8fafed"/><circle cx="127.2" cy="283.11" r="23.24" fill="#8fafed"/><polygon points="127.2 117.82 138.57 137.52 149.94 157.21 127.2 157.21 104.46 157.21 115.83 137.52 127.2 117.82" fill="#8fafed"/><path d="M69,127.83l7,12.19,7,12.19H54.93L62,140l7-12.19m0-10-11.37,19.7L46.27,157.21H91.75L80.38,137.52,69,117.82Z" fill="#8fafed"/><path d="M139.25,195.22v26.64H112.61V195.22h26.64m5-5H107.6v36.65h36.65V190.22Z" fill="#8fafed"/><rect x="52.31" y="190.22" width="36.65" height="36.65" transform="translate(279.18 137.91) rotate(90)" fill="#8fafed"/><circle cx="69.01" cy="72.91" r="23.24" fill="#8fafed"/><path d="M127.2,54.93a18,18,0,1,1-18,18,18,18,0,0,1,18-18m0-5.26a23.24,23.24,0,1,0,23.24,23.24A23.24,23.24,0,0,0,127.2,49.67Z" fill="#8fafed"/></svg>