<?xml version="1.0" encoding="utf-8"?>
<!-- Generator: Adobe Illustrator 26.0.1, SVG Export Plug-In . SVG Version: 6.00 Build 0)  -->
<svg version="1.1" id="Layer_1" xmlns="http://www.w3.org/2000/svg" xmlns:xlink="http://www.w3.org/1999/xlink" x="0px" y="0px"
	 viewBox="0 0 351.7 339.3" style="enable-background:new 0 0 351.7 339.3;" xml:space="preserve">
<style type="text/css">
	.pie-st19{fill:#FFFFFF;}
</style>
<path class="pie-st19" d="M166.7,31.9c0.3,0,0.6,0,0.9-0.1C167.3,31.9,167,31.9,166.7,31.9z"/>
<path class="pie-st19" d="M170.8,31.7c0.3,0,0.7,0,1,0C171.5,31.7,171.1,31.7,170.8,31.7z"/>
<path class="pie-st19" d="M162.6,32.3C162.7,32.3,162.7,32.3,162.6,32.3C162.7,32.3,162.7,32.3,162.6,32.3z"/>
<path class="pie-st19" d="M158.3,32.8L158.3,32.8C158.3,32.8,158.3,32.8,158.3,32.8C158.3,32.8,158.3,32.8,158.3,32.8z"/>
<path class="pie-st19" d="M42.6,205.4c-2-7.6-3.4-15.5-4.2-23.3C39.1,190,40.5,197.8,42.6,205.4z"/>
<path class="pie-st19" d="M38.4,181.2c-0.1-0.9-0.1-1.8-0.2-2.6C38.2,179.4,38.3,180.3,38.4,181.2z"/>
<path class="pie-st19" d="M38.1,177c0-0.6-0.1-1.2-0.1-1.9C38,175.8,38,176.4,38.1,177z"/>
<path class="pie-st19" d="M43.5,208.7c-0.3-1.1-0.6-2.2-0.9-3.3C42.9,206.5,43.2,207.6,43.5,208.7z"/>
<path class="pie-st19" d="M134.1,301.1c-1-0.3-1.9-0.6-2.9-1C132.1,300.5,133.1,300.8,134.1,301.1z"/>
<path class="pie-st19" d="M44.2,210.9c-0.2-0.5-0.3-1-0.5-1.4C43.9,209.9,44.1,210.4,44.2,210.9z"/>
<path class="pie-st19" d="M273.3,267c-22.1,22.1-50.2,35.8-80.4,39.6c33.7-4.2,64.9-20.7,87.4-46.8l0-0.4
	C278.1,262.1,275.7,264.6,273.3,267z"/>
<path class="pie-st19" d="M37.9,173.1c0-0.2,0-0.3,0-0.5C37.9,172.8,37.9,172.9,37.9,173.1z"/>
<path class="pie-st19" d="M129.6,299.6c-0.1-0.1-0.3-0.1-0.4-0.2C129.3,299.5,129.5,299.6,129.6,299.6z"/>
<path class="pie-st19" d="M134.3,301.2c13.3,4.2,27.3,6.4,41.5,6.4c5.7,0,11.4-0.4,17-1.1c-5.6,0.7-11.3,1-17,1
	C161.8,307.6,147.7,305.4,134.3,301.2z"/>
<path class="pie-st19" d="M312.9,153.5L312.9,153.5c-3.9-33.4-20.1-64.2-45.4-86.8c-25.4-22.6-58-35.1-91.7-35.1c0,0,0,0,0,0
	c-1.4,0-2.7,0-4.1,0.1c-0.3,0-0.7,0-1,0c-1.1,0-2.2,0.1-3.2,0.2c-0.3,0-0.6,0-0.9,0.1c-1.3,0.1-2.7,0.2-4,0.3c0,0,0,0,0,0
	c-1.4,0.1-2.9,0.3-4.3,0.5c0,0,0,0-0.1,0c-30,3.9-57.9,17.5-79.8,39.5C52.9,97.8,38.6,131.3,37.9,167l0,0c0,0.9,0,1.7,0,2.6
	c0,1,0,2,0,3c0,0.2,0,0.3,0,0.5c0,0.7,0,1.4,0.1,2.1c0,0.6,0,1.2,0.1,1.9c0,0.5,0.1,1,0.1,1.5c0.1,0.9,0.1,1.8,0.2,2.6
	c0,0.3,0,0.6,0.1,0.9c0.7,7.9,2.1,15.7,4.2,23.3c0,0,0,0,0,0.1c0.3,1.1,0.6,2.2,0.9,3.3c0.1,0.2,0.1,0.5,0.2,0.7
	c0.1,0.5,0.3,1,0.5,1.4c1.1,3.5,2.3,6.9,3.7,10.3l0,0c6,15,14.6,28.7,25.4,40.8c10.8,12,23.6,22,37.9,29.6l0,0
	c5.8,3.1,11.8,5.7,18,7.9c0.1,0.1,0.3,0.1,0.4,0.2c0.5,0.2,1,0.4,1.6,0.5c1,0.3,1.9,0.7,2.9,1c0.1,0,0.2,0.1,0.3,0.1
	c13.4,4.2,27.5,6.4,41.5,6.4c5.7,0,11.4-0.4,17-1c0,0,0,0,0,0c30.2-3.8,58.3-17.5,80.4-39.6c2.4-2.4,4.8-5,7-7.5
	c21.7-25.1,33.6-56.6,33.6-89.9C313.9,164.3,313.6,158.8,312.9,153.5z M180.3,40.6c62.1,2.1,113.9,48.2,123.2,109.5l-123.2,14.5
	V40.6z M171.4,40.6v124.5l-124.5-2.4C50.5,96.2,104.6,42.9,171.4,40.6z M46.8,171.6l111.1,2.1l-99.3,50
	C51.1,207.4,47,189.5,46.8,171.6z M79.9,256c-6.7-7.5-12.5-15.7-17.3-24.4l102.8-51.8l-54,101.7C99.6,274.8,89,266.2,79.9,256z
	 M175.9,298.8c-19.6,0-39-4.5-56.6-13.1L178.6,174l0.1-0.3L304.6,159c0.3,3.6,0.4,7.1,0.4,10.7C305,240.8,247.1,298.8,175.9,298.8z"
	/>
</svg>
