<svg id="a3cdec3a-3009-40b3-be21-52914da18b75" data-name="Layer 1" xmlns="http://www.w3.org/2000/svg" viewBox="0 0 385.22 700.28"><rect x="285.02" y="266.27" width="38.28" height="38.28" transform="translate(589.57 -18.75) rotate(90)" fill="#8fafed"/><circle cx="204.25" cy="511.23" r="23.06" fill="#8fafed"/><polygon points="355.62 499.98 335.05 511.85 314.48 523.73 314.48 499.98 314.48 476.22 335.05 488.1 355.62 499.98" fill="#8fafed"/><path d="M263,409.12V437H235.2V409.12H263m5.22-5.23H230v38.28h38.27V403.89Z" fill="#8fafed"/><path d="M145.56,534.89a17.84,17.84,0,1,1-17.84,17.84,17.86,17.86,0,0,1,17.84-17.84m0-5.23a23.07,23.07,0,1,0,23.07,23.07,23.07,23.07,0,0,0-23.07-23.07Z" fill="#8fafed"/><path d="M214.63,597.29l12.73,7.35L240.1,612l-12.74,7.35-12.73,7.35v-29.4m-5.22-9v47.51L230,623.87,250.55,612,230,600.12l-20.57-11.88Z" fill="#8fafed"/><rect x="29.6" y="505.52" width="38.28" height="38.28" transform="translate(-475.92 573.4) rotate(-90)" fill="#8fafed"/><circle cx="154.9" cy="651.99" r="23.06" fill="#8fafed"/><polygon points="71.62 387.4 92.19 375.53 112.76 363.65 112.76 387.4 112.76 411.16 92.19 399.28 71.62 387.4" fill="#8fafed"/><path d="M152.3,466.92v27.83H124.47V466.92H152.3m5.22-5.22H119.24V500h38.28V461.7Z" fill="#8fafed"/><path d="M204.25,328.41a17.84,17.84,0,1,1-17.84,17.84,17.86,17.86,0,0,1,17.84-17.84m0-5.22a23.07,23.07,0,1,0,23.06,23.06,23.06,23.06,0,0,0-23.06-23.06Z" fill="#8fafed"/><path d="M155.16,294.46v29.41l-12.73-7.36-12.74-7.35,12.74-7.35,12.73-7.35m5.23-9-20.58,11.88-20.57,11.87L139.81,321l20.58,11.88V285.41Z" fill="#8fafed"/><circle cx="209" cy="114.95" r="23.06" fill="#8fafed"/><polygon points="294.04 194.88 273.47 206.75 252.9 218.63 252.9 194.88 252.9 171.12 273.47 183 294.04 194.88" fill="#8fafed"/><path d="M246.74,54.2V82H218.92V54.2h27.82M252,49H213.69V87.25H252V49Z" fill="#8fafed"/><path d="M164.84,188.13A17.84,17.84,0,1,1,147,206a17.87,17.87,0,0,1,17.84-17.84m0-5.22A23.07,23.07,0,1,0,187.9,206a23.07,23.07,0,0,0-23.06-23.06Z" fill="#8fafed"/><rect x="35.65" y="203.51" width="38.28" height="38.28" transform="translate(-167.86 277.44) rotate(-90)" fill="#8fafed"/><polygon points="117.95 48.98 138.52 37.1 159.09 25.22 159.09 48.98 159.09 72.73 138.52 60.85 117.95 48.98" fill="#8fafed"/><path d="M130.12,105v27.83H102.3V105h27.82m5.23-5.23H97.07V138h38.28V99.73Z" fill="#8fafed"/></svg>