<svg id="a4f1591b-ce4b-4020-ba3a-1434ec5448d6" data-name="Layer 1" xmlns="http://www.w3.org/2000/svg" viewBox="0 0 81.36 81.44"><path d="M40.68.08A40.68,40.68,0,1,0,81.36,40.76,40.68,40.68,0,0,0,40.68.08ZM30,60.28c-2.24,0-4.48,0-6.72,0-.26,0-.52,0-.82,0V32.81H31v.88c0,8.55,0,17.1,0,25.65C31,60.1,30.76,60.29,30,60.28ZM26.61,29.13a5.06,5.06,0,1,1,5-5A5,5,0,0,1,26.61,29.13Zm36.13,31H54.35V58.75q0-6.11-.05-12.21c0-.89-.06-1.78-.14-2.67a4.34,4.34,0,0,0-4.46-4.21,4.68,4.68,0,0,0-4.93,4.27c-.16,3.23-.16,6.47-.19,9.7,0,2.16,0,4.31,0,6.57H36.42V32.82h8.17v3.39c.45-.54.72-.89,1-1.22a10.39,10.39,0,0,1,14-.79,9,9,0,0,1,3.11,6.64c.16,6.36.1,12.72.13,19.09C62.8,60,62.77,60,62.74,60.17Z" /></svg>
