<svg id="a2d06c84-a8dc-4907-b4cc-a5a3fe49e189" data-name="Layer 1" xmlns="http://www.w3.org/2000/svg" viewBox="0 0 81.36 81.44"><path d="M40.68.08A40.68,40.68,0,1,0,81.36,40.76,40.68,40.68,0,0,0,40.68.08ZM61.89,33.43c.6,13.2-9.24,27.9-26.65,27.9a26.55,26.55,0,0,1-14.38-4.21,18.81,18.81,0,0,0,13.89-3.89A9.36,9.36,0,0,1,26,46.72a9.37,9.37,0,0,0,4.23-.16,9.38,9.38,0,0,1-7.52-9.31A9.37,9.37,0,0,0,27,38.42a9.38,9.38,0,0,1-2.9-12.52,26.62,26.62,0,0,0,19.33,9.8,9.39,9.39,0,0,1,16-8.56,18.87,18.87,0,0,0,6-2.27,9.43,9.43,0,0,1-4.12,5.19,18.73,18.73,0,0,0,5.38-1.48A18.77,18.77,0,0,1,61.89,33.43Z" fill="#fff"/></svg>
